<svg width="32" height="32" viewBox="0 0 32" fill="none" xmlns="http://www.w3.org/2000/svg"><circle fill="none" cx="16" cy="16" r="16" /><g transform="matrix(0.23443223,0,0,0.23443223,-13.362637,-13.362637)"><path fill="#FFF" d="M 125.25,57 C 87.556641,57 57,87.556641 57,125.25 c 0,37.6936 30.556641,68.25 68.25,68.25 37.69336,0 68.25,-30.55664 68.25,-68.25 C 193.5,87.556397 162.94336,57 125.25,57 Z m 0,103 v 25.5 c -26.233643,0 -47.5,-21.26636 -47.5,-47.5 0,-26.2334 21.266357,-47.5 47.5,-47.5 V 65 c 26.23364,0 47.5,21.266357 47.5,47.5 0,26.2334 -21.26636,47.5 -47.5,47.5 z m 23.5,-34.96863 v 0.43689 c -10.3584,5.16272 -18.11914,12.9231 -23.28149,23.28174 h -0.43677 C 119.86914,138.39136 112.1084,130.63098 101.75,125.46826 v -0.43689 c 10.3584,-5.16247 18.11914,-12.92309 23.28174,-23.28137 h 0.43677 c 5.16235,10.35828 12.92309,18.1189 23.28149,23.28137 z" /></g></svg>
