<svg width="32" height="32" viewBox="0 0 32" fill="none" xmlns="http://www.w3.org/2000/svg"><g transform="scale(0.0128)"><g><g><g><path fill="#213147" d="m 226,760 v 980 c 0,63 33,120 88,152 l 849,490 c 54,31 121,31 175,0 l 849,-490 c 54,-31 88,-89 88,-152 V 760 c 0,-63 -33,-120 -88,-152 L 1338,118 c -54,-31 -121,-31 -175,0 L 314,608 c -54,31 -87,89 -87,152 z" /><g><g><g><path fill="#12AAFF" d="m 1435,1440 -121,332 c -3,9 -3,19 0,29 l 208,571 241,-139 -289,-793 c -7,-18 -32,-18 -39,0 z" /></g><g><path fill="#12AAFF" d="m 1678,882 c -7,-18 -32,-18 -39,0 l -121,332 c -3,9 -3,19 0,29 l 341,935 241,-139 -422,-1156 z" /></g></g></g><g><path fill="#9DCCED" d="m 1250,155 c 6,0 12,2 17,5 l 918,530 c 11,6 17,18 17,30 v 1060 c 0,12 -7,24 -17,30 l -918,530 c -5,3 -11,5 -17,5 -6,0 -12,-2 -17,-5 L 315,1810 c -11,-6 -17,-18 -17,-30 V 719 c 0,-12 7,-24 17,-30 l 918,-530 c 5,-3 11,-5 17,-5 v 0 z m 0,-155 c -33,0 -65,8 -95,25 L 237,555 c -59,34 -95,96 -95,164 v 1060 c 0,68 36,130 95,164 l 918,530 c 29,17 62,25 95,25 33,0 65,-8 95,-25 l 918,-530 c 59,-34 95,-96 95,-164 V 719 c 0,-68 -36,-130 -95,-164 L 1344,25 C 1315,8 1282,0 1249,0 v 0 z" /></g><polygon fill="#213147" points="897,2088 738,2234 642,2179 727,1947" /><g><path fill="#FFFFFF" d="M 1172,644 H 939 c -17,0 -33,11 -39,27 L 401,2039 642,2178 1192,671 c 5,-14 -5,-28 -19,-28 z" /><path fill="#FFFFFF" d="m 1580,644 h -233 c -17,0 -33,11 -39,27 L 738,2233 979,2372 1599,671 c 5,-14 -5,-28 -19,-28 z" /></g></g></g></g></g></svg>
