<svg width="32" height="32" viewBox="0 0 32 32" fill="none" xmlns="http://www.w3.org/2000/svg"><rect width="32" height="31.99968" rx="15.99984" fill="#141416" x="0" y="0" style="stroke-width:0.159998" /><path d="M 18.856932,19.396286 C 13.565304,20.98379 9.1879402,23.299447 6.4478716,26.01254 l -0.1209748,0.120479 c 0.7286327,0.688793 1.5275847,1.304787 2.3912401,1.828302 L 8.903815,27.734603 c 0.7483125,-0.912791 1.550081,-1.794862 2.385608,-2.626374 2.242122,-2.231658 4.807856,-4.163638 7.570389,-5.714823 z" fill="#f5f5f5" style="stroke-width:0.159998" /><path d="m 2.000172,17.04431 c 0.2109899,2.830691 1.2631394,5.426345 2.9144989,7.537524 l 0.075951,-0.07568 c 1.6963671,-1.671503 3.904745,-3.191968 6.5688621,-4.516275 2.334969,-1.162068 5.01603,-2.158858 7.905121,-2.94557 z" fill="#f5f5f5" style="stroke-width:0.159998" /><path d="M 12.769168,5.4103459 C 17.503825,10.122699 23.462166,13.239068 29.9973,14.420656 29.209628,7.4347257 23.256888,1.99998 16.024,1.99998 c -1.910125,0 -3.730267,0.3807962 -5.392874,1.0667893 0.675161,0.8119919 1.395346,1.601584 2.138042,2.3435766 z" fill="#f5f5f5" style="stroke-width:0.159998" /><path d="M 6.4478716,5.9871562 C 9.1879402,8.703129 13.565304,11.015906 18.856932,12.60629 16.094399,11.052306 13.528729,9.1231248 11.286607,6.8915471 10.453896,6.0627554 9.6521275,5.1807642 8.900999,4.2651734 L 8.7153209,4.0383756 C 7.8516655,4.5619704 7.0527135,5.1779642 6.3268968,5.8667574 Z" fill="#f5f5f5" style="stroke-width:0.159998" /><path d="m 12.769168,26.589334 c -0.745512,0.741913 -1.465681,1.531665 -2.138042,2.343657 1.659791,0.685913 3.482749,1.066709 5.392874,1.066709 7.232888,0 13.185628,-5.434666 13.97618,-12.423556 -6.535135,1.181589 -12.493635,4.298037 -17.228196,9.01047 z" fill="#f5f5f5" style="stroke-width:0.159998" /><path d="M 11.559484,12.00988 C 8.8953671,10.685493 6.6869892,9.1651084 4.9906221,7.4935251 L 4.9146709,7.4179259 C 3.2633114,9.5291048 2.2111619,12.124679 2.000172,14.955451 H 19.461885 C 16.572634,14.168658 13.894453,13.171868 11.556668,12.00708 Z" fill="#f5f5f5" style="stroke-width:0.159998" /></svg>
