<svg viewBox="0 0 32 32" width="32" height="32" xmlns="http://www.w3.org/2000/svg"><path fill="#FFF" d="M 3.000001,29.621336 C 3.2209394,22.951266 4.3518298,16.726566 6.242469,11.886005 8.6361143,5.7538723 12.102141,2.37692 15.999564,2.37692 c 3.897424,0 7.36345,3.3769523 9.757969,9.509959 1.245289,3.189198 2.161354,6.979209 2.704531,11.101938 0.0489,0.368521 0.08995,0.742283 0.131864,1.116044 0.01397,0.02271 0.02183,0.04454 0.01921,0.062 0,0 0.318746,1.992812 0.386861,5.455345 h -0.0358 c -0.473315,-0.388607 -6.054412,-4.773318 -15.305881,-3.503577 0.139723,-1.565781 0.331844,-3.088771 0.579854,-4.548886 0.0131,-0.07423 0.02707,-0.14671 0.04017,-0.220939 3.628456,-0.109159 6.804555,0.311759 9.240117,0.864542 -0.0087,-0.05764 -0.01659,-0.117019 -0.0262,-0.174655 -0.500386,-3.11759 -1.239176,-5.971451 -2.191919,-8.410506 -1.557048,-3.9882445 -3.589158,-6.4657241 -5.301649,-6.4657241 -1.712491,0 -3.744601,2.4774796 -5.301649,6.4657241 -0.377255,0.964968 -0.7204515,1.993685 -1.0278441,3.078292 -0.4322708,1.520371 -0.795553,3.150775 -1.0863534,4.863266 -0.429651,2.529876 -0.6977463,5.242266 -0.7964263,8.053337 H 3.000001 Z" /></svg>
