<svg width="32" height="32" viewBox="0 0 32" fill="none" xmlns="http://www.w3.org/2000/svg"><path d="M 7.5795165,4.9014667 16.000016,0 24.420483,4.9014667 21.324716,6.7122 16.000016,3.6214667 10.675283,6.7122 Z M 24.420483,11.082933 21.324716,9.2722 16.000016,12.362933 10.675283,9.2722 7.5795165,11.082933 V 14.7044 l 5.3246995,3.090733 v 6.181434 l 3.0958,1.810766 3.095767,-1.810766 v -6.181434 l 5.3247,-3.090733 z m 0,9.802934 V 17.2644 l -3.095767,1.810733 V 22.6966 Z m 2.198033,1.28 -5.3247,3.090733 v 3.621433 l 8.420467,-4.901466 v -9.8029 L 26.618516,15.9844 Z M 23.522749,7.9922 26.618516,9.8029333 V 13.4244 l 3.095767,-1.810733 V 7.9922 L 26.618516,6.1814667 Z M 12.904217,26.5678 v 3.621467 L 16.000016,32 19.095783,30.189267 V 26.5678 l -3.095767,1.810733 z M 7.5795165,20.885867 10.675283,22.6966 V 19.075133 L 7.5795165,17.2644 Z M 12.904217,7.9922 16.000016,9.8029333 19.095783,7.9922 16.000016,6.1814667 Z M 5.3814835,9.8029333 8.4772495,7.9922 5.3814835,6.1814667 2.2857165,7.9922 v 3.621467 l 3.095767,1.810733 z m 0,6.1814667 -3.095767,-1.810733 v 9.8029 l 8.4205005,4.901466 V 25.2566 L 5.3814835,22.165867 Z" fill="#ffffff" style="stroke-width:0.333333" /></svg>
