<svg width="32" height="32" viewBox="0 0 32 32" fill="none" xmlns="http://www.w3.org/2000/svg"><g fill="#000" transform="scale(0.13333333)"><g fill="#000"><path fill="#000" d="M 120,0 C 53.520066,0 0,53.520066 0,120 0,186.47993 53.520066,240 120,240 186.47993,240 240,186.47993 240,120 240,53.520066 186.47993,0 120,0 Z m -5.15625,20 -22.494141,27.259766 -1.708984,-1.404297 -17.28125,20.943359 v -0.01367 c -0.651756,-0.02895 -1.302411,-0.0293 -1.96875,-0.0293 -0.521468,0 -1.056657,0.01482 -1.578125,0.0293 L 88.525391,44.101562 86.816406,42.697266 104.73438,20.984375 C 108.05083,20.491967 111.42498,20.159347 114.84375,20 Z m 12.16602,0.160156 c 3.07047,0.231728 6.09754,0.59353 9.08203,1.085938 L 108.55664,48.607422 107.00781,47.042969 85.337891,68.609375 C 84.295062,68.319633 83.252725,68.07272 82.195312,67.855469 l 22.884768,-22.769531 -1.54883,-1.5625 z M 94.261719,23.113281 78.169922,48.027344 76.314453,46.824219 63.003906,67.421875 v -0.01367 c -1.260189,0.202775 -2.505091,0.44865 -3.736328,0.738281 L 74.011719,45.318359 72.158203,44.117188 83.484375,26.576172 c 3.505194,-1.347046 7.09833,-2.506919 10.777344,-3.462891 z m 53.011721,0.667969 c 2.72326,0.782148 5.41702,1.680286 8.03906,2.679688 l -30.89453,25.347656 -1.4043,-1.710938 -27.433592,22.494141 C 94.682119,72.128341 93.768816,71.694613 92.841797,71.289062 L 121.27539,47.96875 119.86914,46.259766 Z m -71.582034,6.199219 -12.673828,23.738281 -1.939453,-1.042969 -9.574219,17.947266 -0.01563,0.01367 C 50.08333,71.201616 48.70757,71.825044 47.375,72.505859 L 58.644531,51.386719 56.689453,50.34375 63.974609,36.701172 c 3.736923,-2.491209 7.646707,-4.736378 11.716797,-6.720703 z m 90.687504,1.476562 c 2.38911,1.26019 4.70868,2.608262 6.98242,4.056641 l -36.125,22.970703 -1.1875,-1.867187 -32.72656,20.808593 c 0.002,0.0014 0.004,0.0025 0.006,0.0039 h -0.0137 l 0.008,-0.0039 c -0.79485,-0.592374 -1.58903,-1.169634 -2.41211,-1.71875 l 33.67578,-21.408203 -1.1875,-1.86914 z M 57.3125,41.566406 l -7.910156,22.451172 -2.083985,-0.738281 -4.070312,11.558594 -0.01563,0.01367 c -1.317986,0.825578 -2.592177,1.708895 -3.837891,2.650391 l 5.330078,-15.121094 -2.085937,-0.738281 3.404297,-9.660156 C 49.533686,48.230915 53.300423,44.752906 57.3125,41.566406 Z m 126.14258,1.31836 c 1.97007,1.636679 3.8832,3.331731 5.72265,5.113281 l -39.97656,20.84375 -1.01562,-1.970703 -36.15235,18.84375 h -0.0137 c -0.60843,-0.724136 -1.24608,-1.41799 -1.88281,-2.113282 L 146.89648,64.4375 145.88477,62.46875 Z m 14.5293,14.77539 c 1.56407,1.940896 3.04014,3.939279 4.44531,5.996094 L 159.12305,80.007812 158.33984,77.9375 117.4082,93.392578 c -0.46368,-0.811099 -0.95568,-1.608476 -1.46289,-2.390625 l 41.42383,-15.642578 -0.78125,-2.072266 z m -157.314458,0.59375 -3.621094,16.917969 -2.158203,-0.464844 -1.796875,8.400391 c -1.491918,1.549821 -2.896405,3.202136 -4.185547,4.925781 L 32.210938,74.128906 30.601562,73.78125 c 2.882392,-5.489628 6.258949,-10.68958 10.06836,-15.527344 z M 208.99219,74.677734 c 1.1015,2.158147 2.1292,4.374028 3.08593,6.619141 l -46.46679,11.603516 -0.53516,-2.144532 -43.78711,10.935551 v 0.0156 c -0.31783,-0.86966 -0.65122,-1.723695 -1.01367,-2.578124 l 44.14844,-11.037109 -0.53516,-2.144531 z M 25.634766,81.804688 v 11.125 C 23.1724,97.101113 21.260189,101.63465 20,106.44336 21.028353,97.767448 22.940672,88.916516 25.634766,81.804688 Z M 216.50977,94.144531 c 0.62258,2.303028 1.17304,4.650423 1.63671,7.025389 l -48.37695,5.95313 -0.27539,-2.20117 -45.81445,5.63476 v 0.0293 c -0.15891,-0.9121 -0.34724,-1.81103 -0.55078,-2.70899 l 46.03125,-5.66406 -0.27539,-2.20117 z M 171.31836,116.4082 h 0.0723 48.52149 c 0.0577,1.37579 0.0879,2.75118 0.0879,4.12696 0,1.01442 -0.0137,2.02855 -0.043,3.04296 h -0.11523 -48.52344 v -2.21679 h -46.8125 c 0,-0.46367 0.0137,-0.92656 0.0137,-1.375 0,-0.44952 5.3e-4,-0.92744 -0.0137,-1.37695 h 46.8125 z m -47.63867,13.05078 45.74023,5.63282 0.27539,-2.20118 48.37891,5.95313 c -0.46367,2.36082 -1.01499,4.70811 -1.63867,7.02539 l -47.62305,-5.86523 0.27539,-2.20313 -45.95703,-5.64844 c -0.001,0.004 -9.4e-4,0.009 -0.002,0.0137 v -0.0137 h 0.002 c 0.20237,-0.89347 0.39071,-1.7858 0.54883,-2.69336 z m -103.607424,4.35938 c 1.245712,4.66393 3.114834,9.06754 5.490234,13.12305 v 8.21093 c -2.578283,-6.79292 -4.43282,-13.93263 -5.490234,-21.33398 z m 101.203124,4.50391 43.72656,10.92187 0.53711,-2.14453 46.46485,11.60351 c -0.95564,2.24435 -1.98396,4.46078 -3.09961,6.61915 l -45.10352,-11.26954 0.53516,-2.14453 -44.07422,-11.00781 c 0.34722,-0.85442 0.69476,-1.70956 1.01367,-2.57812 z m -3.88281,8.29882 40.875,15.44141 0.78125,-2.07031 43.30859,16.35156 c -1.41932,2.05714 -2.89538,4.05542 -4.44531,5.99609 l -41.39649,-15.62695 0.78126,-2.07227 -41.36719,-15.6289 c 0.50612,-0.78258 0.99921,-1.57974 1.46289,-2.39063 z m -88.136721,5.79493 c 1.158748,1.53577 2.418235,2.98507 3.736329,4.375 l 1.826171,8.50195 2.158203,-0.46289 3.621094,16.91601 C 36.788245,176.908 33.41158,171.72296 30.529297,166.21875 l 1.609375,-0.3457 -2.882813,-13.44336 z m 82.763671,1.89648 36.10938,18.81641 1.01367,-1.97071 39.97656,20.84375 c -1.83945,1.78068 -3.75064,3.47628 -5.7207,5.11328 l -37.57227,-19.58398 1.01367,-1.96875 -36.71875,-19.13477 h 0.0156 c 0.65088,-0.68027 1.27438,-1.39034 1.88281,-2.11523 z m -72.726561,8.11328 0.01563,0.0273 c 1.245605,0.9415 2.533469,1.82575 3.851562,2.66602 l 4.083985,11.61524 2.085937,-0.73829 7.910156,22.45118 C 53.228052,195.26138 49.461426,191.785 45.970708,188.03316 l -3.404297,-9.66211 2.085938,-0.73828 z m 63.962891,0.17188 32.69141,20.78711 1.1875,-1.86915 36.125,22.97266 c -2.25959,1.43347 -4.59223,2.79428 -6.98243,4.05469 l -32.98046,-20.97461 1.1875,-1.86719 -33.63086,-21.39062 c -0.005,0.004 -0.0102,0.008 -0.0156,0.0117 l 0.0137,-0.0137 0.002,0.002 c 0.8203,-0.5475 1.61084,-1.12252 2.40234,-1.71289 z m -7.734376,4.83789 27.404296,22.48047 1.4043,-1.70899 30.91015,25.34766 c -2.62203,0.99918 -5.3158,1.89711 -8.03906,2.67969 l -27.40429,-22.48047 1.40624,-1.70899 -28.404292,-23.30469 h -0.01563 c 0.927019,-0.40599 1.840222,-0.84101 2.738281,-1.30468 z m -48.232422,0.0156 0.01563,0.0274 c 1.337353,0.67452 2.703156,1.30848 4.097656,1.86914 l 9.603515,17.99023 1.955079,-1.04297 12.673828,23.74024 c -4.070092,-1.98422 -7.98172,-4.22929 -11.71875,-6.72071 l -7.285157,-13.64453 1.955079,-1.04297 -11.28125,-21.14843 c -0.01013,-0.005 -0.02113,-0.009 -0.03125,-0.0137 z m 37.992188,3.93945 21.6543,21.55274 1.56445,-1.57813 27.51953,27.375 c -2.9834,0.49306 -6.01156,0.8541 -9.08203,1.08594 l -23.47852,-23.36328 1.55079,-1.56445 -22.871098,-22.75391 c 1.057305,-0.21768 2.114225,-0.47854 3.142578,-0.75391 z m -26.115234,0.41993 c 1.231128,0.28953 2.491872,0.53474 3.751953,0.73828 l 13.324219,20.625 1.855468,-1.20117 16.091797,24.91406 c -3.679013,-0.95565 -7.272041,-2.1154 -10.777344,-3.46289 L 72.085938,195.88279 73.939453,194.68162 59.179688,171.8242 Z m 10.544922,1.375 c 0.55042,0.0294 1.115594,0.0293 1.666015,0.0293 0.637278,0 1.273683,1.1e-4 1.896485,-0.0293 l 17.279296,20.94531 1.708985,-1.4043 L 114.75781,220 c -3.41877,-0.15891 -6.79487,-0.49132 -10.11133,-0.98438 l -17.917964,-21.71289 1.710937,-1.40429 -18.714844,-22.6836 z" /></g></g></svg>
