<svg xmlns="http://www.w3.org/2000/svg" width="120" height="120" viewBox="0 0 120 120" version="1.1"><path d="M 53 1.927 C 53 2.327, 51.680 2.460, 50.066 2.223 C 47.437 1.837, 47.181 2.036, 47.595 4.146 L 48.056 6.500 47.060 4.250 C 46.513 3.012, 45.627 2, 45.091 2 C 44.556 2, 43.828 2.470, 43.473 3.044 C 43.118 3.618, 43.309 4.668, 43.898 5.377 C 44.687 6.328, 44.590 6.667, 43.528 6.667 C 42.736 6.667, 42.291 6.339, 42.538 5.938 C 42.786 5.537, 42.298 4.945, 41.454 4.621 C 40.557 4.276, 39.986 4.544, 40.078 5.266 C 40.166 5.945, 40.184 7.089, 40.118 7.809 C 40.052 8.543, 39.486 8.800, 38.830 8.395 C 38.043 7.909, 37.869 8.217, 38.299 9.336 C 38.716 10.423, 38.428 11, 37.469 11 C 36.661 11, 35.971 10.438, 35.937 9.750 C 35.902 9.063, 35.442 9.577, 34.916 10.894 C 34.200 12.683, 34.379 13.930, 35.625 15.830 C 36.541 17.229, 37.356 19.302, 37.436 20.437 C 37.516 21.572, 38.159 22.376, 38.865 22.225 C 39.571 22.074, 39.846 22.440, 39.476 23.039 C 39.106 23.638, 42.887 29.519, 47.878 36.108 C 52.868 42.697, 56.512 47.817, 55.975 47.484 C 55.437 47.152, 50.421 40.945, 44.829 33.690 C 39.236 26.436, 34.487 20.288, 34.276 20.029 C 34.064 19.770, 33.499 20.193, 33.019 20.970 C 32.475 21.850, 32.700 23.452, 33.616 25.224 C 34.424 26.787, 35.465 27.831, 35.930 27.543 C 36.394 27.256, 36.712 27.804, 36.637 28.761 C 36.562 29.717, 37.010 30.405, 37.632 30.289 C 38.255 30.173, 38.705 30.848, 38.632 31.789 C 38.560 32.730, 39.062 33.388, 39.750 33.250 C 40.437 33.113, 40.947 33.338, 40.882 33.750 C 40.816 34.163, 40.823 35.175, 40.897 36 C 40.988 37.022, 41.265 37.136, 41.765 36.358 C 42.255 35.597, 43.140 36.068, 44.421 37.773 C 45.477 39.179, 45.756 39.968, 45.041 39.525 C 44.167 38.985, 43.892 39.177, 44.204 40.111 C 44.458 40.875, 45.198 41.500, 45.847 41.500 C 46.497 41.500, 49.746 45.100, 53.069 49.500 C 56.391 53.900, 57.741 56.037, 56.069 54.250 C 54.396 52.462, 52.720 51, 52.343 51 C 51.966 51, 50.865 50.283, 49.896 49.406 C 48.910 48.514, 48.400 47.121, 48.737 46.242 C 49.110 45.272, 48.931 44.925, 48.269 45.334 C 47.658 45.711, 44.420 42.236, 40.734 37.248 C 37.179 32.437, 31.854 24.993, 28.900 20.706 C 25.946 16.419, 23.381 13.357, 23.200 13.901 C 23.019 14.444, 23.429 15.927, 24.113 17.195 C 24.796 18.463, 25.402 20.493, 25.459 21.707 C 25.555 23.761, 25.439 23.802, 23.781 22.302 C 22.802 21.415, 22 21.028, 22 21.441 C 22 21.853, 22.963 23.611, 24.140 25.346 L 26.280 28.500 23.600 25.750 C 22.125 24.238, 20.712 23, 20.460 23 C 20.207 23, 20.113 23.562, 20.250 24.250 C 20.388 24.938, 19.882 25.369, 19.127 25.209 C 18.197 25.012, 17.969 25.477, 18.420 26.653 C 19.047 28.286, 18.976 28.288, 17.214 26.694 C 16.185 25.762, 14.985 25, 14.549 25 C 14.112 25, 14.286 25.640, 14.935 26.422 C 15.834 27.504, 15.838 28.287, 14.953 29.704 C 14.017 31.203, 14.197 32.291, 15.878 35.283 C 17.026 37.327, 17.653 39, 17.270 39 C 16.888 39, 15.522 37.762, 14.235 36.250 C 11.963 33.581, 11.929 33.573, 13.089 36 C 13.746 37.375, 15.106 39.676, 16.112 41.113 C 17.118 42.550, 17.652 44.015, 17.298 44.369 C 16.944 44.722, 15.401 43.546, 13.868 41.756 C 11.426 38.903, 11.076 38.755, 11.041 40.559 C 11.018 41.691, 11.661 43.491, 12.468 44.559 C 13.276 45.626, 13.951 46.940, 13.968 47.478 C 13.986 48.016, 11.976 46.252, 9.503 43.558 C 7.030 40.864, 4.797 38.870, 4.541 39.126 C 4.285 39.382, 4.751 40.894, 5.577 42.487 C 7.073 45.369, 7.071 45.374, 5.040 43.536 C 3.032 41.719, 2.998 41.736, 2.849 44.595 C 2.766 46.193, 2.615 48.400, 2.514 49.500 C 2.413 50.600, 2.002 52.237, 1.601 53.137 C 1.201 54.038, 1.075 58.363, 1.322 62.749 C 1.569 67.136, 2.242 72.249, 2.818 74.112 C 3.393 75.976, 4.394 79.343, 5.041 81.595 C 5.881 84.516, 9.383 89.210, 17.267 97.983 C 27.215 109.050, 29.044 110.612, 35.593 113.638 C 39.595 115.487, 43.652 117, 44.609 117 C 46.208 117, 46.194 116.815, 44.424 114.702 C 43.366 113.438, 43.691 113.618, 45.146 115.102 C 46.602 116.585, 48.739 118.100, 49.896 118.467 C 51.279 118.906, 52 118.701, 52 117.867 C 52 116.882, 52.267 116.867, 53.200 117.800 C 53.877 118.477, 57.122 119, 60.651 119 C 64.089 119, 69.174 118.513, 71.951 117.917 C 74.728 117.322, 77 116.369, 77 115.801 C 77 115.232, 77.900 115.002, 79 115.290 C 80.282 115.625, 81 115.320, 81 114.442 C 81 113.687, 80.061 112.568, 78.914 111.954 C 77.767 111.340, 77.069 110.598, 77.362 110.305 C 77.655 110.012, 79.458 110.738, 81.368 111.919 C 83.279 113.099, 85.079 113.681, 85.370 113.211 C 85.660 112.741, 85.246 111.100, 84.449 109.564 C 83.652 108.028, 83 106.597, 83 106.384 C 83 106.171, 84.681 106.897, 86.735 107.998 C 88.790 109.099, 90.841 110, 91.294 110 C 91.747 110, 91.793 109.474, 91.395 108.830 C 90.909 108.043, 91.217 107.869, 92.336 108.299 C 93.349 108.687, 94 108.441, 94 107.669 C 94 106.971, 93.468 105.868, 92.817 105.217 C 92.166 104.566, 91.902 103.765, 92.230 103.437 C 92.558 103.109, 93.936 103.567, 95.292 104.456 C 97.565 105.945, 97.807 105.944, 98.382 104.446 C 98.731 103.538, 97.975 101.092, 96.673 98.907 C 95.389 96.755, 94.133 95.200, 93.882 95.452 C 93.630 95.703, 92.875 95.030, 92.204 93.955 C 91.147 92.263, 91.249 92, 92.956 92 C 94.042 92, 95.393 92.866, 95.959 93.924 C 96.526 94.982, 98.411 96.557, 100.148 97.424 C 101.886 98.291, 103.554 99, 103.857 99 C 104.159 99, 102.627 97.090, 100.453 94.756 C 97.962 92.082, 97.609 91.473, 99.500 93.110 C 101.150 94.538, 103.287 95.984, 104.250 96.322 C 105.213 96.660, 106 96.571, 106 96.124 C 106 95.676, 105.097 94.493, 103.994 93.494 C 102.890 92.496, 102.217 91.449, 102.498 91.169 C 102.778 90.888, 104.119 91.703, 105.478 92.979 C 107.700 95.067, 108.014 95.128, 108.604 93.590 C 109.034 92.468, 108.270 90.785, 106.380 88.690 L 103.500 85.500 106.740 88.427 C 108.521 90.037, 110.223 91.110, 110.521 90.812 C 110.819 90.514, 111.248 89.308, 111.475 88.132 C 111.701 86.955, 112.188 85.505, 112.556 84.910 C 112.924 84.314, 111.712 82.183, 109.862 80.173 C 108.013 78.163, 107.654 77.527, 109.064 78.759 C 110.475 79.992, 112.007 81, 112.469 81 C 112.932 81, 112.456 79.987, 111.412 78.750 C 109.662 76.675, 109.726 76.687, 112.227 78.896 L 114.939 81.291 116.114 78.396 C 116.761 76.803, 117.337 73.814, 117.395 71.753 C 117.453 69.692, 117.856 68.005, 118.291 68.003 C 118.726 68.001, 118.928 64.191, 118.740 59.536 L 118.398 51.073 111.933 44.286 C 108.376 40.554, 102.532 34.125, 98.944 30 C 95.356 25.875, 88.940 18.116, 84.685 12.758 C 80.431 7.400, 76.624 3.066, 76.225 3.127 C 75.826 3.187, 75.275 3.149, 75 3.042 C 74.725 2.935, 73.600 2.609, 72.500 2.319 C 71.400 2.028, 66.563 1.657, 61.750 1.495 C 56.938 1.333, 53 1.527, 53 1.927 M 63 2.500 C 63 2.775, 63.225 3, 63.500 3 C 63.775 3, 64 2.775, 64 2.500 C 64 2.225, 63.775 2, 63.500 2 C 63.225 2, 63 2.225, 63 2.500 M 58.500 4 C 58.840 4.550, 59.343 5, 59.618 5 C 59.893 5, 59.840 4.550, 59.500 4 C 59.160 3.450, 58.657 3, 58.382 3 C 58.107 3, 58.160 3.450, 58.500 4 M 69 3.500 C 69 3.775, 69.225 4, 69.500 4 C 69.775 4, 70 3.775, 70 3.500 C 70 3.225, 69.775 3, 69.500 3 C 69.225 3, 69 3.225, 69 3.500 M 57 6 C 57 6.733, 57.300 7.033, 57.667 6.667 C 58.033 6.300, 58.033 5.700, 57.667 5.333 C 57.300 4.967, 57 5.267, 57 6 M 83.563 9.750 C 85.655 12.363, 89.422 16.954, 91.933 19.954 C 94.445 22.954, 99.425 28.521, 103 32.325 C 106.575 36.129, 111.224 41.026, 113.332 43.206 C 115.439 45.386, 117.384 46.949, 117.655 46.678 C 117.925 46.408, 115.526 43.370, 112.323 39.929 C 109.121 36.487, 105.150 32.265, 103.500 30.548 C 101.850 28.830, 98.380 24.967, 95.789 21.962 C 93.197 18.958, 89.260 14.258, 87.039 11.518 C 84.817 8.778, 83 6.191, 83 5.768 C 83 5.346, 82.271 5, 81.380 5 C 80.192 5, 80.775 6.269, 83.563 9.750 M 49 6.500 C 49 6.775, 49.225 7, 49.500 7 C 49.775 7, 50 6.775, 50 6.500 C 50 6.225, 49.775 6, 49.500 6 C 49.225 6, 49 6.225, 49 6.500 M 75 6.500 C 75 6.775, 75.225 7, 75.500 7 C 75.775 7, 76 6.775, 76 6.500 C 76 6.225, 75.775 6, 75.500 6 C 75.225 6, 75 6.225, 75 6.500 M 61.500 8 C 61.840 8.550, 62.343 9, 62.618 9 C 62.893 9, 62.840 8.550, 62.500 8 C 62.160 7.450, 61.657 7, 61.382 7 C 61.107 7, 61.160 7.450, 61.500 8 M 72 7.500 C 72 7.775, 72.225 8, 72.500 8 C 72.775 8, 73 7.775, 73 7.500 C 73 7.225, 72.775 7, 72.500 7 C 72.225 7, 72 7.225, 72 7.500 M 78 7.500 C 78 7.775, 78.225 8, 78.500 8 C 78.775 8, 79 7.775, 79 7.500 C 79 7.225, 78.775 7, 78.500 7 C 78.225 7, 78 7.225, 78 7.500 M 41.500 9 C 41.840 9.550, 42.343 10, 42.618 10 C 42.893 10, 42.840 9.550, 42.500 9 C 42.160 8.450, 41.657 8, 41.382 8 C 41.107 8, 41.160 8.450, 41.500 9 M 44.399 9.250 C 44.003 9.938, 44.048 10.166, 44.498 9.759 C 44.948 9.351, 46.032 9.576, 46.908 10.259 C 48.317 11.357, 48.342 11.298, 47.128 9.750 C 46.373 8.787, 45.612 8, 45.437 8 C 45.261 8, 44.794 8.563, 44.399 9.250 M 49 8.500 C 49 8.775, 49.225 9, 49.500 9 C 49.775 9, 50 8.775, 50 8.500 C 50 8.225, 49.775 8, 49.500 8 C 49.225 8, 49 8.225, 49 8.500 M 59 8.500 C 59 8.775, 59.225 9, 59.500 9 C 59.775 9, 60 8.775, 60 8.500 C 60 8.225, 59.775 8, 59.500 8 C 59.225 8, 59 8.225, 59 8.500 M 74 8.500 C 74 8.775, 74.225 9, 74.500 9 C 74.775 9, 75 8.775, 75 8.500 C 75 8.225, 74.775 8, 74.500 8 C 74.225 8, 74 8.225, 74 8.500 M 32 9.941 C 32 10.459, 32.450 11.160, 33 11.500 C 33.550 11.840, 34 11.416, 34 10.559 C 34 9.702, 33.550 9, 33 9 C 32.450 9, 32 9.423, 32 9.941 M 51 9.500 C 51 9.775, 51.225 10, 51.500 10 C 51.775 10, 52 9.775, 52 9.500 C 52 9.225, 51.775 9, 51.500 9 C 51.225 9, 51 9.225, 51 9.500 M 54 10.500 C 54 10.775, 54.225 11, 54.500 11 C 54.775 11, 55 10.775, 55 10.500 C 55 10.225, 54.775 10, 54.500 10 C 54.225 10, 54 10.225, 54 10.500 M 63.500 11 C 63.840 11.550, 64.343 12, 64.618 12 C 64.893 12, 64.840 11.550, 64.500 11 C 64.160 10.450, 63.657 10, 63.382 10 C 63.107 10, 63.160 10.450, 63.500 11 M 78 10.500 C 78 10.775, 78.225 11, 78.500 11 C 78.775 11, 79 10.775, 79 10.500 C 79 10.225, 78.775 10, 78.500 10 C 78.225 10, 78 10.225, 78 10.500 M 41.437 11.771 C 41.779 12.112, 42.761 12.494, 43.621 12.621 C 44.480 12.747, 44.904 12.571, 44.563 12.229 C 44.221 11.888, 43.239 11.506, 42.379 11.379 C 41.520 11.253, 41.096 11.429, 41.437 11.771 M 52 12 C 52 12.550, 52.477 13, 53.059 13 C 53.641 13, 53.840 12.550, 53.500 12 C 53.160 11.450, 52.684 11, 52.441 11 C 52.198 11, 52 11.450, 52 12 M 75 11.500 C 75 11.775, 75.225 12, 75.500 12 C 75.775 12, 76 11.775, 76 11.500 C 76 11.225, 75.775 11, 75.500 11 C 75.225 11, 75 11.225, 75 11.500 M 81 11.500 C 81 11.775, 81.225 12, 81.500 12 C 81.775 12, 82 11.775, 82 11.500 C 82 11.225, 81.775 11, 81.500 11 C 81.225 11, 81 11.225, 81 11.500 M 48.500 13 C 48.840 13.550, 49.343 14, 49.618 14 C 49.893 14, 49.840 13.550, 49.500 13 C 49.160 12.450, 48.657 12, 48.382 12 C 48.107 12, 48.160 12.450, 48.500 13 M 68 12.500 C 68 12.775, 68.225 13, 68.500 13 C 68.775 13, 69 12.775, 69 12.500 C 69 12.225, 68.775 12, 68.500 12 C 68.225 12, 68 12.225, 68 12.500 M 56 13.500 C 56 13.775, 56.225 14, 56.500 14 C 56.775 14, 57 13.775, 57 13.500 C 57 13.225, 56.775 13, 56.500 13 C 56.225 13, 56 13.225, 56 13.500 M 43.500 15 C 43.840 15.550, 44.343 16, 44.618 16 C 44.893 16, 44.840 15.550, 44.500 15 C 44.160 14.450, 43.657 14, 43.382 14 C 43.107 14, 43.160 14.450, 43.500 15 M 66 14.500 C 66 14.775, 66.225 15, 66.500 15 C 66.775 15, 67 14.775, 67 14.500 C 67 14.225, 66.775 14, 66.500 14 C 66.225 14, 66 14.225, 66 14.500 M 81.500 15 C 81.840 15.550, 82.343 16, 82.618 16 C 82.893 16, 82.840 15.550, 82.500 15 C 82.160 14.450, 81.657 14, 81.382 14 C 81.107 14, 81.160 14.450, 81.500 15 M 46 15.500 C 46 15.775, 46.225 16, 46.500 16 C 46.775 16, 47 15.775, 47 15.500 C 47 15.225, 46.775 15, 46.500 15 C 46.225 15, 46 15.225, 46 15.500 M 50.500 16 C 50.840 16.550, 51.343 17, 51.618 17 C 51.893 17, 51.840 16.550, 51.500 16 C 51.160 15.450, 50.657 15, 50.382 15 C 50.107 15, 50.160 15.450, 50.500 16 M 54.333 15.667 C 54.700 16.033, 55.300 16.033, 55.667 15.667 C 56.033 15.300, 55.733 15, 55 15 C 54.267 15, 53.967 15.300, 54.333 15.667 M 62.500 16 C 62.840 16.550, 63.343 17, 63.618 17 C 63.893 17, 63.840 16.550, 63.500 16 C 63.160 15.450, 62.657 15, 62.382 15 C 62.107 15, 62.160 15.450, 62.500 16 M 78 15.500 C 78 15.775, 78.225 16, 78.500 16 C 78.775 16, 79 15.775, 79 15.500 C 79 15.225, 78.775 15, 78.500 15 C 78.225 15, 78 15.225, 78 15.500 M 84 15.500 C 84 15.775, 84.225 16, 84.500 16 C 84.775 16, 85 15.775, 85 15.500 C 85 15.225, 84.775 15, 84.500 15 C 84.225 15, 84 15.225, 84 15.500 M 58.603 16.833 C 58.320 17.292, 58.723 17.667, 59.500 17.667 C 60.277 17.667, 60.680 17.292, 60.397 16.833 C 60.114 16.375, 59.710 16, 59.500 16 C 59.290 16, 58.886 16.375, 58.603 16.833 M 65 16.500 C 65 16.775, 65.225 17, 65.500 17 C 65.775 17, 66 16.775, 66 16.500 C 66 16.225, 65.775 16, 65.500 16 C 65.225 16, 65 16.225, 65 16.500 M 71.500 17 C 71.840 17.550, 72.343 18, 72.618 18 C 72.893 18, 72.840 17.550, 72.500 17 C 72.160 16.450, 71.657 16, 71.382 16 C 71.107 16, 71.160 16.450, 71.500 17 M 80 16.500 C 80 16.775, 80.225 17, 80.500 17 C 80.775 17, 81 16.775, 81 16.500 C 81 16.225, 80.775 16, 80.500 16 C 80.225 16, 80 16.225, 80 16.500 M 45.500 18 C 45.840 18.550, 46.343 19, 46.618 19 C 46.893 19, 46.840 18.550, 46.500 18 C 46.160 17.450, 45.657 17, 45.382 17 C 45.107 17, 45.160 17.450, 45.500 18 M 55 17.500 C 55 17.775, 55.225 18, 55.500 18 C 55.775 18, 56 17.775, 56 17.500 C 56 17.225, 55.775 17, 55.500 17 C 55.225 17, 55 17.225, 55 17.500 M 48.500 19 C 48.840 19.550, 49.343 20, 49.618 20 C 49.893 20, 49.840 19.550, 49.500 19 C 49.160 18.450, 48.657 18, 48.382 18 C 48.107 18, 48.160 18.450, 48.500 19 M 52 18.378 C 52 18.585, 52.788 19.373, 53.750 20.128 C 55.336 21.371, 55.371 21.336, 54.128 19.750 C 53.373 18.788, 52.585 18, 52.378 18 C 52.170 18, 52 18.170, 52 18.378 M 69 18.500 C 69 18.775, 69.225 19, 69.500 19 C 69.775 19, 70 18.775, 70 18.500 C 70 18.225, 69.775 18, 69.500 18 C 69.225 18, 69 18.225, 69 18.500 M 84.500 19 C 84.840 19.550, 85.343 20, 85.618 20 C 85.893 20, 85.840 19.550, 85.500 19 C 85.160 18.450, 84.657 18, 84.382 18 C 84.107 18, 84.160 18.450, 84.500 19 M 74.500 21 C 75.495 22.100, 76.535 23, 76.810 23 C 77.085 23, 76.495 22.100, 75.500 21 C 74.505 19.900, 73.465 19, 73.190 19 C 72.915 19, 73.505 19.900, 74.500 21 M 81.500 20 C 81.840 20.550, 82.343 21, 82.618 21 C 82.893 21, 82.840 20.550, 82.500 20 C 82.160 19.450, 81.657 19, 81.382 19 C 81.107 19, 81.160 19.450, 81.500 20 M 57 20.500 C 57 20.775, 57.225 21, 57.500 21 C 57.775 21, 58 20.775, 58 20.500 C 58 20.225, 57.775 20, 57.500 20 C 57.225 20, 57 20.225, 57 20.500 M 60.333 20.667 C 60.700 21.033, 61.300 21.033, 61.667 20.667 C 62.033 20.300, 61.733 20, 61 20 C 60.267 20, 59.967 20.300, 60.333 20.667 M 68.967 21.500 C 69.774 22.600, 70.506 23.632, 70.593 23.793 C 70.681 23.954, 71.057 23.293, 71.429 22.324 C 71.801 21.354, 71.786 20.881, 71.395 21.272 C 71.004 21.663, 69.968 21.424, 69.092 20.741 C 67.657 19.623, 67.645 19.698, 68.967 21.500 M 88 20.500 C 88 20.775, 88.225 21, 88.500 21 C 88.775 21, 89 20.775, 89 20.500 C 89 20.225, 88.775 20, 88.500 20 C 88.225 20, 88 20.225, 88 20.500 M 26.500 22 C 26.840 22.550, 27.343 23, 27.618 23 C 27.893 23, 27.840 22.550, 27.500 22 C 27.160 21.450, 26.657 21, 26.382 21 C 26.107 21, 26.160 21.450, 26.500 22 M 48.437 21.771 C 48.779 22.112, 49.761 22.494, 50.621 22.621 C 51.480 22.747, 51.904 22.571, 51.563 22.229 C 51.221 21.888, 50.239 21.506, 49.379 21.379 C 48.520 21.253, 48.096 21.429, 48.437 21.771 M 63 21.500 C 63 21.775, 63.225 22, 63.500 22 C 63.775 22, 64 21.775, 64 21.500 C 64 21.225, 63.775 21, 63.500 21 C 63.225 21, 63 21.225, 63 21.500 M 57 25 C 58.175 26.650, 59.361 28, 59.636 28 C 59.911 28, 59.175 26.650, 58 25 C 56.825 23.350, 55.639 22, 55.364 22 C 55.089 22, 55.825 23.350, 57 25 M 88.500 24 C 88.840 24.550, 89.343 25, 89.618 25 C 89.893 25, 89.840 24.550, 89.500 24 C 89.160 23.450, 88.657 23, 88.382 23 C 88.107 23, 88.160 23.450, 88.500 24 M 60 24.500 C 60 24.775, 60.225 25, 60.500 25 C 60.775 25, 61 24.775, 61 24.500 C 61 24.225, 60.775 24, 60.500 24 C 60.225 24, 60 24.225, 60 24.500 M 63 24.500 C 63 24.775, 63.225 25, 63.500 25 C 63.775 25, 64 24.775, 64 24.500 C 64 24.225, 63.775 24, 63.500 24 C 63.225 24, 63 24.225, 63 24.500 M 79.888 27.719 C 81.664 30.039, 85.152 34.089, 87.638 36.719 C 90.554 39.803, 89.959 38.839, 85.959 34 C 82.550 29.875, 79.062 25.825, 78.209 25 C 77.355 24.175, 78.111 25.398, 79.888 27.719 M 85 24.500 C 85 24.775, 85.225 25, 85.500 25 C 85.775 25, 86 24.775, 86 24.500 C 86 24.225, 85.775 24, 85.500 24 C 85.225 24, 85 24.225, 85 24.500 M 29 25.500 C 29 25.775, 29.225 26, 29.500 26 C 29.775 26, 30 25.775, 30 25.500 C 30 25.225, 29.775 25, 29.500 25 C 29.225 25, 29 25.225, 29 25.500 M 51 25.500 C 51 25.775, 51.225 26, 51.500 26 C 51.775 26, 52 25.775, 52 25.500 C 52 25.225, 51.775 25, 51.500 25 C 51.225 25, 51 25.225, 51 25.500 M 53 25.500 C 53 25.775, 53.225 26, 53.500 26 C 53.775 26, 54 25.775, 54 25.500 C 54 25.225, 53.775 25, 53.500 25 C 53.225 25, 53 25.225, 53 25.500 M 92 25.500 C 92 25.775, 92.225 26, 92.500 26 C 92.775 26, 93 25.775, 93 25.500 C 93 25.225, 92.775 25, 92.500 25 C 92.225 25, 92 25.225, 92 25.500 M 62 26.500 C 62 26.775, 62.225 27, 62.500 27 C 62.775 27, 63 26.775, 63 26.500 C 63 26.225, 62.775 26, 62.500 26 C 62.225 26, 62 26.225, 62 26.500 M 73 26.500 C 73 26.775, 73.225 27, 73.500 27 C 73.775 27, 74 26.775, 74 26.500 C 74 26.225, 73.775 26, 73.500 26 C 73.225 26, 73 26.225, 73 26.500 M 75 26.500 C 75 26.775, 75.225 27, 75.500 27 C 75.775 27, 76 26.775, 76 26.500 C 76 26.225, 75.775 26, 75.500 26 C 75.225 26, 75 26.225, 75 26.500 M 88 26.500 C 88 26.775, 88.225 27, 88.500 27 C 88.775 27, 89 26.775, 89 26.500 C 89 26.225, 88.775 26, 88.500 26 C 88.225 26, 88 26.225, 88 26.500 M 65.613 28.183 C 65.902 28.650, 66.557 28.774, 67.069 28.457 C 67.581 28.141, 68 27.759, 68 27.608 C 68 27.457, 67.345 27.333, 66.544 27.333 C 65.743 27.333, 65.324 27.716, 65.613 28.183 M 31.500 29 C 31.840 29.550, 32.343 30, 32.618 30 C 32.893 30, 32.840 29.550, 32.500 29 C 32.160 28.450, 31.657 28, 31.382 28 C 31.107 28, 31.160 28.450, 31.500 29 M 63 28.378 C 63 28.585, 63.788 29.373, 64.750 30.128 C 66.336 31.371, 66.371 31.336, 65.128 29.750 C 64.373 28.788, 63.585 28, 63.378 28 C 63.170 28, 63 28.170, 63 28.378 M 74 28.500 C 74 28.775, 74.225 29, 74.500 29 C 74.775 29, 75 28.775, 75 28.500 C 75 28.225, 74.775 28, 74.500 28 C 74.225 28, 74 28.225, 74 28.500 M 20.511 31.377 C 21.457 32.820, 22.419 34, 22.650 34 C 22.881 34, 22.602 33.125, 22.030 32.056 C 21.457 30.986, 20.495 29.806, 19.891 29.433 C 19.287 29.059, 19.566 29.934, 20.511 31.377 M 26 29.378 C 26 29.585, 26.788 30.373, 27.750 31.128 C 29.336 32.371, 29.371 32.336, 28.128 30.750 C 27.373 29.788, 26.585 29, 26.378 29 C 26.170 29, 26 29.170, 26 29.378 M 54 29.500 C 54 29.775, 54.225 30, 54.500 30 C 54.775 30, 55 29.775, 55 29.500 C 55 29.225, 54.775 29, 54.500 29 C 54.225 29, 54 29.225, 54 29.500 M 60 29.378 C 60 29.585, 60.788 30.373, 61.750 31.128 C 63.336 32.371, 63.371 32.336, 62.128 30.750 C 61.373 29.788, 60.585 29, 60.378 29 C 60.170 29, 60 29.170, 60 29.378 M 17 30.500 C 17 30.775, 17.225 31, 17.500 31 C 17.775 31, 18 30.775, 18 30.500 C 18 30.225, 17.775 30, 17.500 30 C 17.225 30, 17 30.225, 17 30.500 M 68.500 32 C 68.840 32.550, 69.343 33, 69.618 33 C 69.893 33, 69.840 32.550, 69.500 32 C 69.160 31.450, 68.657 31, 68.382 31 C 68.107 31, 68.160 31.450, 68.500 32 M 77 31.500 C 77 31.775, 77.225 32, 77.500 32 C 77.775 32, 78 31.775, 78 31.500 C 78 31.225, 77.775 31, 77.500 31 C 77.225 31, 77 31.225, 77 31.500 M 95 31.500 C 95 31.775, 95.225 32, 95.500 32 C 95.775 32, 96 31.775, 96 31.500 C 96 31.225, 95.775 31, 95.500 31 C 95.225 31, 95 31.225, 95 31.500 M 31.333 32.667 C 31.700 33.033, 32.300 33.033, 32.667 32.667 C 33.033 32.300, 32.733 32, 32 32 C 31.267 32, 30.967 32.300, 31.333 32.667 M 34 32.500 C 34 32.775, 34.225 33, 34.500 33 C 34.775 33, 35 32.775, 35 32.500 C 35 32.225, 34.775 32, 34.500 32 C 34.225 32, 34 32.225, 34 32.500 M 98 32.500 C 98 32.775, 98.225 33, 98.500 33 C 98.775 33, 99 32.775, 99 32.500 C 99 32.225, 98.775 32, 98.500 32 C 98.225 32, 98 32.225, 98 32.500 M 29.500 34 C 29.840 34.550, 30.343 35, 30.618 35 C 30.893 35, 30.840 34.550, 30.500 34 C 30.160 33.450, 29.657 33, 29.382 33 C 29.107 33, 29.160 33.450, 29.500 34 M 57 33.500 C 57 33.775, 57.225 34, 57.500 34 C 57.775 34, 58 33.775, 58 33.500 C 58 33.225, 57.775 33, 57.500 33 C 57.225 33, 57 33.225, 57 33.500 M 78 33.500 C 78 33.775, 78.225 34, 78.500 34 C 78.775 34, 79 33.775, 79 33.500 C 79 33.225, 78.775 33, 78.500 33 C 78.225 33, 78 33.225, 78 33.500 M 21.100 35.705 C 21.829 36.917, 22.640 37.694, 22.903 37.431 C 23.166 37.168, 22.570 36.176, 21.579 35.226 C 19.857 33.577, 19.835 33.598, 21.100 35.705 M 33 34.500 C 33 34.775, 33.225 35, 33.500 35 C 33.775 35, 34 34.775, 34 34.500 C 34 34.225, 33.775 34, 33.500 34 C 33.225 34, 33 34.225, 33 34.500 M 64 34.378 C 64 34.585, 64.787 35.373, 65.750 36.128 C 67.336 37.371, 67.371 37.336, 66.128 35.750 C 65.373 34.788, 64.585 34, 64.378 34 C 64.170 34, 64 34.170, 64 34.378 M 93 34.500 C 93 34.775, 93.225 35, 93.500 35 C 93.775 35, 94 34.775, 94 34.500 C 94 34.225, 93.775 34, 93.500 34 C 93.225 34, 93 34.225, 93 34.500 M 69 35.500 C 69 35.775, 69.225 36, 69.500 36 C 69.775 36, 70 35.775, 70 35.500 C 70 35.225, 69.775 35, 69.500 35 C 69.225 35, 69 35.225, 69 35.500 M 80.500 36 C 80.840 36.550, 81.343 37, 81.618 37 C 81.893 37, 81.840 36.550, 81.500 36 C 81.160 35.450, 80.657 35, 80.382 35 C 80.107 35, 80.160 35.450, 80.500 36 M 24.500 37 C 24.840 37.550, 25.343 38, 25.618 38 C 25.893 38, 25.840 37.550, 25.500 37 C 25.160 36.450, 24.657 36, 24.382 36 C 24.107 36, 24.160 36.450, 24.500 37 M 37.500 37 C 37.840 37.550, 38.343 38, 38.618 38 C 38.893 38, 38.840 37.550, 38.500 37 C 38.160 36.450, 37.657 36, 37.382 36 C 37.107 36, 37.160 36.450, 37.500 37 M 34.095 39.915 C 35.350 41.612, 36.474 43, 36.594 43 C 36.715 43, 36.574 42.086, 36.281 40.968 C 35.989 39.851, 34.865 38.463, 33.783 37.884 C 31.997 36.928, 32.026 37.117, 34.095 39.915 M 73 37.500 C 73 37.775, 73.225 38, 73.500 38 C 73.775 38, 74 37.775, 74 37.500 C 74 37.225, 73.775 37, 73.500 37 C 73.225 37, 73 37.225, 73 37.500 M 43 38.500 C 43 38.775, 43.225 39, 43.500 39 C 43.775 39, 44 38.775, 44 38.500 C 44 38.225, 43.775 38, 43.500 38 C 43.225 38, 43 38.225, 43 38.500 M 24 39.500 C 24 39.775, 24.225 40, 24.500 40 C 24.775 40, 25 39.775, 25 39.500 C 25 39.225, 24.775 39, 24.500 39 C 24.225 39, 24 39.225, 24 39.500 M 26 39.378 C 26 39.585, 26.788 40.373, 27.750 41.128 C 29.336 42.371, 29.371 42.336, 28.128 40.750 C 27.373 39.788, 26.585 39, 26.378 39 C 26.170 39, 26 39.170, 26 39.378 M 37 39.500 C 37 39.775, 37.225 40, 37.500 40 C 37.775 40, 38 39.775, 38 39.500 C 38 39.225, 37.775 39, 37.500 39 C 37.225 39, 37 39.225, 37 39.500 M 72.500 40 C 72.840 40.550, 73.343 41, 73.618 41 C 73.893 41, 73.840 40.550, 73.500 40 C 73.160 39.450, 72.657 39, 72.382 39 C 72.107 39, 72.160 39.450, 72.500 40 M 83.500 40 C 83.840 40.550, 84.343 41, 84.618 41 C 84.893 41, 84.840 40.550, 84.500 40 C 84.160 39.450, 83.657 39, 83.382 39 C 83.107 39, 83.160 39.450, 83.500 40 M 102 40 C 102 40.550, 102.477 41, 103.059 41 C 103.641 41, 103.840 40.550, 103.500 40 C 103.160 39.450, 102.684 39, 102.441 39 C 102.198 39, 102 39.450, 102 40 M 69 40.500 C 69 40.775, 69.225 41, 69.500 41 C 69.775 41, 70 40.775, 70 40.500 C 70 40.225, 69.775 40, 69.500 40 C 69.225 40, 69 40.225, 69 40.500 M 76 41.378 C 76 41.585, 76.787 42.373, 77.750 43.128 C 79.336 44.371, 79.371 44.336, 78.128 42.750 C 77.373 41.788, 76.585 41, 76.378 41 C 76.170 41, 76 41.170, 76 41.378 M 26.500 43 C 26.840 43.550, 27.343 44, 27.618 44 C 27.893 44, 27.840 43.550, 27.500 43 C 27.160 42.450, 26.657 42, 26.382 42 C 26.107 42, 26.160 42.450, 26.500 43 M 33 42.500 C 33 42.775, 33.225 43, 33.500 43 C 33.775 43, 34 42.775, 34 42.500 C 34 42.225, 33.775 42, 33.500 42 C 33.225 42, 33 42.225, 33 42.500 M 46 42.941 C 46 43.459, 46.445 44.157, 46.989 44.493 C 47.555 44.843, 47.723 44.442, 47.382 43.552 C 47.054 42.698, 46.609 42, 46.393 42 C 46.177 42, 46 42.423, 46 42.941 M 68 42.500 C 68 42.775, 68.225 43, 68.500 43 C 68.775 43, 69 42.775, 69 42.500 C 69 42.225, 68.775 42, 68.500 42 C 68.225 42, 68 42.225, 68 42.500 M 95.958 46.250 C 98.410 48.862, 100.548 51, 100.708 51 C 100.869 51, 101 50.869, 101 50.708 C 101 50.548, 98.862 48.410, 96.250 45.958 L 91.500 41.500 95.958 46.250 M 29.500 44 C 29.840 44.550, 30.343 45, 30.618 45 C 30.893 45, 30.840 44.550, 30.500 44 C 30.160 43.450, 29.657 43, 29.382 43 C 29.107 43, 29.160 43.450, 29.500 44 M 38 43.500 C 38 43.775, 38.225 44, 38.500 44 C 38.775 44, 39 43.775, 39 43.500 C 39 43.225, 38.775 43, 38.500 43 C 38.225 43, 38 43.225, 38 43.500 M 40 43.500 C 40 43.775, 40.225 44, 40.500 44 C 40.775 44, 41 43.775, 41 43.500 C 41 43.225, 40.775 43, 40.500 43 C 40.225 43, 40 43.225, 40 43.500 M 77 45.500 C 78.292 46.875, 79.574 48, 79.849 48 C 80.124 48, 79.292 46.875, 78 45.500 C 76.708 44.125, 75.426 43, 75.151 43 C 74.876 43, 75.708 44.125, 77 45.500 M 87 43.500 C 87 43.775, 87.225 44, 87.500 44 C 87.775 44, 88 43.775, 88 43.500 C 88 43.225, 87.775 43, 87.500 43 C 87.225 43, 87 43.225, 87 43.500 M 108 43.378 C 108 43.585, 108.787 44.373, 109.750 45.128 C 111.336 46.371, 111.371 46.336, 110.128 44.750 C 109.373 43.788, 108.585 43, 108.378 43 C 108.170 43, 108 43.170, 108 43.378 M 102 44.500 C 102 44.775, 102.225 45, 102.500 45 C 102.775 45, 103 44.775, 103 44.500 C 103 44.225, 102.775 44, 102.500 44 C 102.225 44, 102 44.225, 102 44.500 M 28 45.500 C 28 45.775, 28.225 46, 28.500 46 C 28.775 46, 29 45.775, 29 45.500 C 29 45.225, 28.775 45, 28.500 45 C 28.225 45, 28 45.225, 28 45.500 M 38.500 46 C 38.840 46.550, 39.343 47, 39.618 47 C 39.893 47, 39.840 46.550, 39.500 46 C 39.160 45.450, 38.657 45, 38.382 45 C 38.107 45, 38.160 45.450, 38.500 46 M 73 45.500 C 73 45.775, 73.225 46, 73.500 46 C 73.775 46, 74 45.775, 74 45.500 C 74 45.225, 73.775 45, 73.500 45 C 73.225 45, 73 45.225, 73 45.500 M 7 46.500 C 7 46.775, 7.225 47, 7.500 47 C 7.775 47, 8 46.775, 8 46.500 C 8 46.225, 7.775 46, 7.500 46 C 7.225 46, 7 46.225, 7 46.500 M 109.500 48 C 110.495 49.100, 111.535 50, 111.810 50 C 112.085 50, 111.495 49.100, 110.500 48 C 109.505 46.900, 108.465 46, 108.190 46 C 107.915 46, 108.505 46.900, 109.500 48 M 30 47.941 C 30 48.459, 30.445 49.157, 30.989 49.493 C 31.555 49.843, 31.723 49.442, 31.382 48.552 C 31.054 47.698, 30.609 47, 30.393 47 C 30.177 47, 30 47.423, 30 47.941 M 32 47.378 C 32 47.585, 32.788 48.373, 33.750 49.128 C 35.336 50.371, 35.371 50.336, 34.128 48.750 C 33.373 47.788, 32.585 47, 32.378 47 C 32.170 47, 32 47.170, 32 47.378 M 41 47.500 C 41 47.775, 41.225 48, 41.500 48 C 41.775 48, 42 47.775, 42 47.500 C 42 47.225, 41.775 47, 41.500 47 C 41.225 47, 41 47.225, 41 47.500 M 49 47.378 C 49 47.585, 49.788 48.373, 50.750 49.128 C 52.336 50.371, 52.371 50.336, 51.128 48.750 C 50.373 47.788, 49.585 47, 49.378 47 C 49.170 47, 49 47.170, 49 47.378 M 81.447 47.915 C 81.758 48.418, 81.538 48.987, 80.958 49.181 C 80.377 49.374, 81.385 50.875, 83.198 52.516 C 85.746 54.823, 85.983 54.919, 84.246 52.936 C 83.011 51.525, 82 49.993, 82 49.531 C 82 49.068, 83.013 49.544, 84.250 50.588 C 86.276 52.297, 86.259 52.213, 84.076 49.743 C 82.742 48.234, 81.478 47, 81.267 47 C 81.055 47, 81.136 47.412, 81.447 47.915 M 90 47.378 C 90 47.585, 90.787 48.373, 91.750 49.128 C 93.336 50.371, 93.371 50.336, 92.128 48.750 C 91.373 47.788, 90.585 47, 90.378 47 C 90.170 47, 90 47.170, 90 47.378 M 4 48.500 C 4 48.775, 4.225 49, 4.500 49 C 4.775 49, 5 48.775, 5 48.500 C 5 48.225, 4.775 48, 4.500 48 C 4.225 48, 4 48.225, 4 48.500 M 38 48.500 C 38 48.775, 38.225 49, 38.500 49 C 38.775 49, 39 48.775, 39 48.500 C 39 48.225, 38.775 48, 38.500 48 C 38.225 48, 38 48.225, 38 48.500 M 13.813 49.683 C 14.534 49.972, 15.397 49.936, 15.729 49.604 C 16.061 49.272, 15.471 49.036, 14.417 49.079 C 13.252 49.127, 13.015 49.364, 13.813 49.683 M 42 50.430 C 42 50.705, 42.900 51.411, 44 52 C 45.100 52.589, 46 52.845, 46 52.570 C 46 52.295, 45.100 51.589, 44 51 C 42.900 50.411, 42 50.155, 42 50.430 M 58 50.378 C 58 50.585, 58.788 51.373, 59.750 52.128 C 61.336 53.371, 61.371 53.336, 60.128 51.750 C 59.373 50.788, 58.585 50, 58.378 50 C 58.170 50, 58 50.170, 58 50.378 M 71.500 51 C 71.840 51.550, 72.343 52, 72.618 52 C 72.893 52, 72.840 51.550, 72.500 51 C 72.160 50.450, 71.657 50, 71.382 50 C 71.107 50, 71.160 50.450, 71.500 51 M 16.613 52.183 C 16.902 52.650, 17.557 52.774, 18.069 52.457 C 18.581 52.141, 19 51.759, 19 51.608 C 19 51.457, 18.345 51.333, 17.544 51.333 C 16.743 51.333, 16.324 51.716, 16.613 52.183 M 35 51.378 C 35 51.585, 35.788 52.373, 36.750 53.128 C 38.336 54.371, 38.371 54.336, 37.128 52.750 C 36.373 51.788, 35.585 51, 35.378 51 C 35.170 51, 35 51.170, 35 51.378 M 95.500 53 C 96.495 54.100, 97.535 55, 97.810 55 C 98.085 55, 97.495 54.100, 96.500 53 C 95.505 51.900, 94.465 51, 94.190 51 C 93.915 51, 94.505 51.900, 95.500 53 M 31.500 53 C 31.840 53.550, 32.343 54, 32.618 54 C 32.893 54, 32.840 53.550, 32.500 53 C 32.160 52.450, 31.657 52, 31.382 52 C 31.107 52, 31.160 52.450, 31.500 53 M 3.638 54.500 C 3.955 55.325, 4.391 56, 4.607 56 C 4.823 56, 5 55.325, 5 54.500 C 5 53.675, 4.564 53, 4.031 53 C 3.499 53, 3.322 53.675, 3.638 54.500 M 87 53.659 C 87 54.205, 88.237 55.742, 89.750 57.076 L 92.500 59.500 90 56.500 C 88.625 54.850, 87.388 53.313, 87.250 53.083 C 87.112 52.854, 87 53.113, 87 53.659 M 20.500 55 C 20.840 55.550, 21.343 56, 21.618 56 C 21.893 56, 21.840 55.550, 21.500 55 C 21.160 54.450, 20.657 54, 20.382 54 C 20.107 54, 20.160 54.450, 20.500 55 M 46.500 56 C 46.840 56.550, 47.343 57, 47.618 57 C 47.893 57, 47.840 56.550, 47.500 56 C 47.160 55.450, 46.657 55, 46.382 55 C 46.107 55, 46.160 55.450, 46.500 56 M 74 55.500 C 74 55.775, 74.225 56, 74.500 56 C 74.775 56, 75 55.775, 75 55.500 C 75 55.225, 74.775 55, 74.500 55 C 74.225 55, 74 55.225, 74 55.500 M 6.405 57.155 C 5.962 57.870, 6.130 58.038, 6.845 57.595 C 7.480 57.203, 8 56.684, 8 56.441 C 8 56.198, 7.802 56, 7.559 56 C 7.316 56, 6.797 56.520, 6.405 57.155 M 34.333 56.667 C 34.700 57.033, 35.300 57.033, 35.667 56.667 C 36.033 56.300, 35.733 56, 35 56 C 34.267 56, 33.967 56.300, 34.333 56.667 M 37 57 C 37 57.733, 37.300 58.033, 37.667 57.667 C 38.033 57.300, 38.033 56.700, 37.667 56.333 C 37.300 55.967, 37 56.267, 37 57 M 39 56.378 C 39 56.585, 39.788 57.373, 40.750 58.128 C 42.336 59.371, 42.371 59.336, 41.128 57.750 C 40.373 56.788, 39.585 56, 39.378 56 C 39.170 56, 39 56.170, 39 56.378 M 64.500 58 C 65.495 59.100, 66.535 60, 66.810 60 C 67.085 60, 66.495 59.100, 65.500 58 C 64.505 56.900, 63.465 56, 63.190 56 C 62.915 56, 63.505 56.900, 64.500 58 M 23.932 59.904 C 25.069 61.502, 26 63.103, 26 63.463 C 26 63.823, 25.517 63.819, 24.926 63.454 C 24.336 63.089, 24.433 63.720, 25.142 64.855 C 25.851 65.991, 26.687 66.507, 26.999 66.002 C 27.311 65.497, 28.878 66.727, 30.481 68.737 C 32.085 70.746, 33.353 73.315, 33.300 74.445 C 33.247 75.575, 33.431 75.905, 33.710 75.177 C 34.085 74.196, 34.898 74.453, 36.858 76.173 L 39.500 78.493 36.890 75.496 C 35.455 73.848, 31.688 69.013, 28.519 64.750 C 25.350 60.487, 22.557 57, 22.311 57 C 22.065 57, 22.794 58.307, 23.932 59.904 M 26.500 58 C 26.840 58.550, 27.343 59, 27.618 59 C 27.893 59, 27.840 58.550, 27.500 58 C 27.160 57.450, 26.657 57, 26.382 57 C 26.107 57, 26.160 57.450, 26.500 58 M 49.500 58 C 49.840 58.550, 50.343 59, 50.618 59 C 50.893 59, 50.840 58.550, 50.500 58 C 50.160 57.450, 49.657 57, 49.382 57 C 49.107 57, 49.160 57.450, 49.500 58 M 91.966 62.259 C 94.972 65.417, 97.511 68, 97.609 68 C 97.706 68, 98.025 67.377, 98.318 66.615 C 98.612 65.847, 97.452 63.953, 95.713 62.365 C 93.988 60.789, 93.177 60.288, 93.911 61.250 C 94.644 62.212, 94.874 63, 94.420 63 C 93.966 63, 91.999 61.542, 90.048 59.759 C 88.096 57.977, 88.960 59.102, 91.966 62.259 M 61.534 61 C 63.028 62.925, 66.003 66.412, 68.146 68.750 C 70.288 71.088, 72.312 73, 72.643 73 C 72.974 73, 72.744 72.396, 72.131 71.658 C 71.519 70.920, 71.351 69.982, 71.759 69.575 C 72.166 69.167, 71.953 68.983, 71.284 69.167 C 70.615 69.350, 67.537 66.800, 64.443 63.500 C 61.349 60.200, 60.040 59.075, 61.534 61 M 72 58.378 C 72 58.585, 72.787 59.373, 73.750 60.128 C 75.336 61.371, 75.371 61.336, 74.128 59.750 C 73.373 58.788, 72.585 58, 72.378 58 C 72.170 58, 72 58.170, 72 58.378 M 40 60.500 C 40 60.775, 40.225 61, 40.500 61 C 40.775 61, 41 60.775, 41 60.500 C 41 60.225, 40.775 60, 40.500 60 C 40.225 60, 40 60.225, 40 60.500 M 50 60.378 C 50 60.585, 50.788 61.373, 51.750 62.128 C 53.336 63.371, 53.371 63.336, 52.128 61.750 C 51.373 60.788, 50.585 60, 50.378 60 C 50.170 60, 50 60.170, 50 60.378 M 86 60.500 C 86 60.775, 86.225 61, 86.500 61 C 86.775 61, 87 60.775, 87 60.500 C 87 60.225, 86.775 60, 86.500 60 C 86.225 60, 86 60.225, 86 60.500 M 3 61.500 C 3 61.775, 3.225 62, 3.500 62 C 3.775 62, 4 61.775, 4 61.500 C 4 61.225, 3.775 61, 3.500 61 C 3.225 61, 3 61.225, 3 61.500 M 22 61.500 C 22 61.775, 22.225 62, 22.500 62 C 22.775 62, 23 61.775, 23 61.500 C 23 61.225, 22.775 61, 22.500 61 C 22.225 61, 22 61.225, 22 61.500 M 29 61.500 C 29 61.775, 29.225 62, 29.500 62 C 29.775 62, 30 61.775, 30 61.500 C 30 61.225, 29.775 61, 29.500 61 C 29.225 61, 29 61.225, 29 61.500 M 9 62.500 C 9 62.775, 9.225 63, 9.500 63 C 9.775 63, 10 62.775, 10 62.500 C 10 62.225, 9.775 62, 9.500 62 C 9.225 62, 9 62.225, 9 62.500 M 39.333 62.667 C 39.700 63.033, 40.300 63.033, 40.667 62.667 C 41.033 62.300, 40.733 62, 40 62 C 39.267 62, 38.967 62.300, 39.333 62.667 M 45.500 64 C 45.840 64.550, 46.343 65, 46.618 65 C 46.893 65, 46.840 64.550, 46.500 64 C 46.160 63.450, 45.657 63, 45.382 63 C 45.107 63, 45.160 63.450, 45.500 64 M 95 63.819 C 95 64.403, 95.480 65.179, 96.067 65.541 C 96.653 65.904, 97.339 65.994, 97.591 65.743 C 97.842 65.491, 97.362 64.716, 96.524 64.020 C 95.574 63.231, 95 63.155, 95 63.819 M 11 64.500 C 11 64.775, 11.225 65, 11.500 65 C 11.775 65, 12 64.775, 12 64.500 C 12 64.225, 11.775 64, 11.500 64 C 11.225 64, 11 64.225, 11 64.500 M 26 64.500 C 26 64.775, 26.225 65, 26.500 65 C 26.775 65, 27 64.775, 27 64.500 C 27 64.225, 26.775 64, 26.500 64 C 26.225 64, 26 64.225, 26 64.500 M 54 64.500 C 54 64.775, 54.225 65, 54.500 65 C 54.775 65, 55 64.775, 55 64.500 C 55 64.225, 54.775 64, 54.500 64 C 54.225 64, 54 64.225, 54 64.500 M 3.500 66 C 3.840 66.550, 4.343 67, 4.618 67 C 4.893 67, 4.840 66.550, 4.500 66 C 4.160 65.450, 3.657 65, 3.382 65 C 3.107 65, 3.160 65.450, 3.500 66 M 14 65.500 C 14 65.775, 14.225 66, 14.500 66 C 14.775 66, 15 65.775, 15 65.500 C 15 65.225, 14.775 65, 14.500 65 C 14.225 65, 14 65.225, 14 65.500 M 32 65.500 C 32 65.775, 32.225 66, 32.500 66 C 32.775 66, 33 65.775, 33 65.500 C 33 65.225, 32.775 65, 32.500 65 C 32.225 65, 32 65.225, 32 65.500 M 111.958 69.250 C 114.410 71.862, 116.548 74, 116.708 74 C 116.869 74, 117 73.869, 117 73.708 C 117 73.548, 114.862 71.410, 112.250 68.958 L 107.500 64.500 111.958 69.250 M 9.500 67 C 9.840 67.550, 10.343 68, 10.618 68 C 10.893 68, 10.840 67.550, 10.500 67 C 10.160 66.450, 9.657 66, 9.382 66 C 9.107 66, 9.160 66.450, 9.500 67 M 83.400 67.249 C 83.003 67.937, 83.052 68.162, 83.509 67.748 C 83.965 67.334, 85.164 67.744, 86.175 68.658 C 87.185 69.573, 88.190 70.136, 88.408 69.911 C 88.626 69.685, 87.750 68.712, 86.462 67.749 C 84.666 66.405, 83.952 66.289, 83.400 67.249 M 14 67.500 C 14 67.775, 14.225 68, 14.500 68 C 14.775 68, 15 67.775, 15 67.500 C 15 67.225, 14.775 67, 14.500 67 C 14.225 67, 14 67.225, 14 67.500 M 44 68 C 44 68.733, 44.300 69.033, 44.667 68.667 C 45.033 68.300, 45.033 67.700, 44.667 67.333 C 44.300 66.967, 44 67.267, 44 68 M 46.500 68 C 46.840 68.550, 47.343 69, 47.618 69 C 47.893 69, 47.840 68.550, 47.500 68 C 47.160 67.450, 46.657 67, 46.382 67 C 46.107 67, 46.160 67.450, 46.500 68 M 100 67.500 C 100 67.775, 100.225 68, 100.500 68 C 100.775 68, 101 67.775, 101 67.500 C 101 67.225, 100.775 67, 100.500 67 C 100.225 67, 100 67.225, 100 67.500 M 49 68.378 C 49 68.585, 49.788 69.373, 50.750 70.128 C 52.336 71.371, 52.371 71.336, 51.128 69.750 C 50.373 68.787, 49.585 68, 49.378 68 C 49.170 68, 49 68.170, 49 68.378 M 28 69.500 C 28 69.775, 28.225 70, 28.500 70 C 28.775 70, 29 69.775, 29 69.500 C 29 69.225, 28.775 69, 28.500 69 C 28.225 69, 28 69.225, 28 69.500 M 35.500 70 C 35.840 70.550, 36.343 71, 36.618 71 C 36.893 71, 36.840 70.550, 36.500 70 C 36.160 69.450, 35.657 69, 35.382 69 C 35.107 69, 35.160 69.450, 35.500 70 M 100.575 70.871 C 101.634 71.900, 102.677 72.586, 102.893 72.395 C 103.108 72.204, 102.716 71.362, 102.020 70.524 C 101.324 69.686, 100.281 69, 99.703 69 C 99.124 69, 99.516 69.842, 100.575 70.871 M 7 70.500 C 7 70.775, 7.225 71, 7.500 71 C 7.775 71, 8 70.775, 8 70.500 C 8 70.225, 7.775 70, 7.500 70 C 7.225 70, 7 70.225, 7 70.500 M 18 70.500 C 18 70.775, 18.225 71, 18.500 71 C 18.775 71, 19 70.775, 19 70.500 C 19 70.225, 18.775 70, 18.500 70 C 18.225 70, 18 70.225, 18 70.500 M 83 70.500 C 83 70.775, 83.225 71, 83.500 71 C 83.775 71, 84 70.775, 84 70.500 C 84 70.225, 83.775 70, 83.500 70 C 83.225 70, 83 70.225, 83 70.500 M 30 71.500 C 30 71.775, 30.225 72, 30.500 72 C 30.775 72, 31 71.775, 31 71.500 C 31 71.225, 30.775 71, 30.500 71 C 30.225 71, 30 71.225, 30 71.500 M 104 71.500 C 104 71.775, 104.225 72, 104.500 72 C 104.775 72, 105 71.775, 105 71.500 C 105 71.225, 104.775 71, 104.500 71 C 104.225 71, 104 71.225, 104 71.500 M 14 72.500 C 14 72.775, 14.225 73, 14.500 73 C 14.775 73, 15 72.775, 15 72.500 C 15 72.225, 14.775 72, 14.500 72 C 14.225 72, 14 72.225, 14 72.500 M 18.564 73.293 C 18.940 74.279, 19.499 74.834, 19.807 74.526 C 20.115 74.219, 19.808 73.412, 19.124 72.733 C 18.136 71.753, 18.022 71.868, 18.564 73.293 M 90 72.500 C 90 72.775, 90.225 73, 90.500 73 C 90.775 73, 91 72.775, 91 72.500 C 91 72.225, 90.775 72, 90.500 72 C 90.225 72, 90 72.225, 90 72.500 M 104 73.378 C 104 73.585, 104.787 74.373, 105.750 75.128 C 107.336 76.371, 107.371 76.336, 106.128 74.750 C 105.373 73.787, 104.585 73, 104.378 73 C 104.170 73, 104 73.170, 104 73.378 M 49.333 74.667 C 49.700 75.033, 50.300 75.033, 50.667 74.667 C 51.033 74.300, 50.733 74, 50 74 C 49.267 74, 48.967 74.300, 49.333 74.667 M 67 74.500 C 67 74.775, 67.225 75, 67.500 75 C 67.775 75, 68 74.775, 68 74.500 C 68 74.225, 67.775 74, 67.500 74 C 67.225 74, 67 74.225, 67 74.500 M 73 74.500 C 73 74.775, 73.225 75, 73.500 75 C 73.775 75, 74 74.775, 74 74.500 C 74 74.225, 73.775 74, 73.500 74 C 73.225 74, 73 74.225, 73 74.500 M 84 74.500 C 84 74.775, 84.225 75, 84.500 75 C 84.775 75, 85 74.775, 85 74.500 C 85 74.225, 84.775 74, 84.500 74 C 84.225 74, 84 74.225, 84 74.500 M 21 75.899 C 21 76.351, 22.596 78.412, 24.546 80.480 C 26.497 82.549, 28.262 84.071, 28.469 83.864 C 28.676 83.657, 27.080 81.596, 24.923 79.283 C 22.765 76.970, 21 75.447, 21 75.899 M 69 75.882 C 69 76.432, 69.450 77.160, 70 77.500 C 70.550 77.840, 71 77.668, 71 77.118 C 71 76.568, 70.550 75.840, 70 75.500 C 69.450 75.160, 69 75.332, 69 75.882 M 108 75.500 C 108 75.775, 108.225 76, 108.500 76 C 108.775 76, 109 75.775, 109 75.500 C 109 75.225, 108.775 75, 108.500 75 C 108.225 75, 108 75.225, 108 75.500 M 41 76.500 C 41 76.775, 41.225 77, 41.500 77 C 41.775 77, 42 76.775, 42 76.500 C 42 76.225, 41.775 76, 41.500 76 C 41.225 76, 41 76.225, 41 76.500 M 57.500 78 C 58.495 79.100, 59.535 80, 59.810 80 C 60.085 80, 59.495 79.100, 58.500 78 C 57.505 76.900, 56.465 76, 56.190 76 C 55.915 76, 56.505 76.900, 57.500 78 M 75.500 77 C 75.840 77.550, 76.343 78, 76.618 78 C 76.893 78, 76.840 77.550, 76.500 77 C 76.160 76.450, 75.657 76, 75.382 76 C 75.107 76, 75.160 76.450, 75.500 77 M 78 77.378 C 78 77.585, 78.787 78.373, 79.750 79.128 C 81.336 80.371, 81.371 80.336, 80.128 78.750 C 79.373 77.787, 78.585 77, 78.378 77 C 78.170 77, 78 77.170, 78 77.378 M 9 78.500 C 9 78.775, 9.225 79, 9.500 79 C 9.775 79, 10 78.775, 10 78.500 C 10 78.225, 9.775 78, 9.500 78 C 9.225 78, 9 78.225, 9 78.500 M 88 78.500 C 88 78.775, 88.225 79, 88.500 79 C 88.775 79, 89 78.775, 89 78.500 C 89 78.225, 88.775 78, 88.500 78 C 88.225 78, 88 78.225, 88 78.500 M 104.500 80 C 104.840 80.550, 105.343 81, 105.618 81 C 105.893 81, 105.840 80.550, 105.500 80 C 105.160 79.450, 104.657 79, 104.382 79 C 104.107 79, 104.160 79.450, 104.500 80 M 6 80.500 C 6 80.775, 6.225 81, 6.500 81 C 6.775 81, 7 80.775, 7 80.500 C 7 80.225, 6.775 80, 6.500 80 C 6.225 80, 6 80.225, 6 80.500 M 15 80.500 C 15 80.775, 15.225 81, 15.500 81 C 15.775 81, 16 80.775, 16 80.500 C 16 80.225, 15.775 80, 15.500 80 C 15.225 80, 15 80.225, 15 80.500 M 82 81.313 C 82 81.485, 83.463 82.948, 85.250 84.563 L 88.500 87.500 85.563 84.250 C 83.948 82.463, 82.485 81, 82.313 81 C 82.141 81, 82 81.141, 82 81.313 M 7.500 83 C 7.840 83.550, 8.568 84, 9.118 84 C 9.668 84, 9.840 83.550, 9.500 83 C 9.160 82.450, 8.432 82, 7.882 82 C 7.332 82, 7.160 82.450, 7.500 83 M 12 82.500 C 12 82.775, 12.225 83, 12.500 83 C 12.775 83, 13 82.775, 13 82.500 C 13 82.225, 12.775 82, 12.500 82 C 12.225 82, 12 82.225, 12 82.500 M 14.500 86 C 15.495 87.100, 16.535 88, 16.810 88 C 17.085 88, 16.495 87.100, 15.500 86 C 14.505 84.900, 13.465 84, 13.190 84 C 12.915 84, 13.505 84.900, 14.500 86 M 29.543 85.931 C 29.226 86.443, 29.455 87.163, 30.050 87.531 C 30.646 87.899, 31.403 87.930, 31.733 87.600 C 32.063 87.270, 31.782 87, 31.108 87 C 30.434 87, 30.160 86.550, 30.500 86 C 30.840 85.450, 30.893 85, 30.618 85 C 30.343 85, 29.859 85.419, 29.543 85.931 M 11 87.409 C 11 87.599, 11.675 88.315, 12.500 89 C 13.365 89.718, 14 89.815, 14 89.229 C 14 88.671, 13.325 87.955, 12.500 87.638 C 11.675 87.322, 11 87.219, 11 87.409 M 90.500 90 C 90.840 90.550, 91.343 91, 91.618 91 C 91.893 91, 91.840 90.550, 91.500 90 C 91.160 89.450, 90.657 89, 90.382 89 C 90.107 89, 90.160 89.450, 90.500 90 M 15.500 91 C 15.840 91.550, 16.343 92, 16.618 92 C 16.893 92, 16.840 91.550, 16.500 91 C 16.160 90.450, 15.657 90, 15.382 90 C 15.107 90, 15.160 90.450, 15.500 91 M 36.252 92.581 C 37.216 93.726, 37.768 94.899, 37.478 95.189 C 37.189 95.478, 37.750 96.342, 38.726 97.107 C 40.301 98.344, 40.361 98.321, 39.259 96.908 C 38.576 96.032, 38.241 95.092, 38.515 94.819 C 38.788 94.545, 37.997 93.461, 36.756 92.411 C 34.501 90.501, 34.501 90.501, 36.252 92.581 M 94 93.500 C 94 93.775, 94.225 94, 94.500 94 C 94.775 94, 95 93.775, 95 93.500 C 95 93.225, 94.775 93, 94.500 93 C 94.225 93, 94 93.225, 94 93.500 M 88 94.500 C 88 94.775, 88.225 95, 88.500 95 C 88.775 95, 89 94.775, 89 94.500 C 89 94.225, 88.775 94, 88.500 94 C 88.225 94, 88 94.225, 88 94.500 M 18.433 95.891 C 18.806 96.495, 19.986 97.457, 21.056 98.030 C 22.125 98.602, 23 98.881, 23 98.650 C 23 98.419, 21.820 97.457, 20.377 96.511 C 18.934 95.566, 18.059 95.287, 18.433 95.891 M 55 98.313 C 55 98.485, 56.462 99.948, 58.250 101.563 L 61.500 104.500 58.563 101.250 C 56.948 99.463, 55.485 98, 55.313 98 C 55.141 98, 55 98.141, 55 98.313 M 35.500 103 C 36.495 104.100, 37.535 105, 37.810 105 C 38.085 105, 37.495 104.100, 36.500 103 C 35.505 101.900, 34.465 101, 34.190 101 C 33.915 101, 34.505 101.900, 35.500 103 M 44 101.500 C 44 101.775, 44.225 102, 44.500 102 C 44.775 102, 45 101.775, 45 101.500 C 45 101.225, 44.775 101, 44.500 101 C 44.225 101, 44 101.225, 44 101.500 M 95.638 102.500 C 95.955 103.325, 96.671 104, 97.229 104 C 97.815 104, 97.718 103.365, 97 102.500 C 96.315 101.675, 95.599 101, 95.409 101 C 95.219 101, 95.322 101.675, 95.638 102.500 M 29.500 107 C 32.209 109.750, 34.650 112, 34.925 112 C 35.200 112, 33.209 109.750, 30.500 107 C 27.791 104.250, 25.350 102, 25.075 102 C 24.800 102, 26.791 104.250, 29.500 107 M 46 103.500 C 46 103.775, 46.225 104, 46.500 104 C 46.775 104, 47 103.775, 47 103.500 C 47 103.225, 46.775 103, 46.500 103 C 46.225 103, 46 103.225, 46 103.500 M 48 105.500 C 48 105.775, 48.225 106, 48.500 106 C 48.775 106, 49 105.775, 49 105.500 C 49 105.225, 48.775 105, 48.500 105 C 48.225 105, 48 105.225, 48 105.500 M 62.500 106 C 62.840 106.550, 63.343 107, 63.618 107 C 63.893 107, 63.840 106.550, 63.500 106 C 63.160 105.450, 62.657 105, 62.382 105 C 62.107 105, 62.160 105.450, 62.500 106 M 58 107.500 C 58 107.775, 58.225 108, 58.500 108 C 58.775 108, 59 107.775, 59 107.500 C 59 107.225, 58.775 107, 58.500 107 C 58.225 107, 58 107.225, 58 107.500 M 66 109.500 C 66 109.775, 66.225 110, 66.500 110 C 66.775 110, 67 109.775, 67 109.500 C 67 109.225, 66.775 109, 66.500 109 C 66.225 109, 66 109.225, 66 109.500 M 53 110.500 C 53 110.775, 53.225 111, 53.500 111 C 53.775 111, 54 110.775, 54 110.500 C 54 110.225, 53.775 110, 53.500 110 C 53.225 110, 53 110.225, 53 110.500 M 70 113.500 C 70 113.775, 70.225 114, 70.500 114 C 70.775 114, 71 113.775, 71 113.500 C 71 113.225, 70.775 113, 70.500 113 C 70.225 113, 70 113.225, 70 113.500 M 50 115.500 C 50 115.775, 50.225 116, 50.500 116 C 50.775 116, 51 115.775, 51 115.500 C 51 115.225, 50.775 115, 50.500 115 C 50.225 115, 50 115.225, 50 115.500" stroke="none" fill="#0d6387" fill-rule="evenodd"/></svg>
