<svg width="32" height="32" viewBox="0 0 32" fill="none" xmlns="http://www.w3.org/2000/svg"><path fill="#000" d="M 24.01268,2.15531 C 21.55309,0.73534 18.89065,0 16,0 13.10935,0 10.44691,0.70998 7.98732,2.15531 5.52773,3.60063 3.60063,5.52773 2.15531,7.98732 0.70998,10.44691 0,13.10935 0,16 c 0,2.89065 0.70998,5.55309 2.15531,8.01268 1.44532,2.45959 3.37242,4.38669 5.83201,5.83201 C 10.44691,31.29002 13.10935,32 16,32 c 2.89065,0 5.55309,-0.70998 8.01268,-2.15531 2.45959,-1.44532 4.38669,-3.37242 5.83201,-5.83201 C 31.29002,21.55309 32,18.89065 32,16 32,13.10935 31.29002,10.44691 29.84469,7.98732 28.39937,5.52773 26.47227,3.60063 24.01268,2.15531 Z M 16.96355,21.7813 c -1.80032,0 -3.24564,-0.50713 -4.36133,-1.54675 -0.7607,-0.70999 -1.24247,-1.57211 -1.49604,-2.58637 h 17.24247 c -0.17749,1.47068 -0.60855,2.83993 -1.26783,4.13312 H 16.93819 Z m -5.83201,-7.37876 c 0.22821,-0.98891 0.73534,-1.85103 1.47068,-2.56102 1.09033,-1.03962 2.56101,-1.57211 4.36133,-1.57211 h 10.19334 c 0.65927,1.29319 1.06498,2.66244 1.21712,4.13313 z M 5.17274,9.6355 C 6.28843,7.7084 7.78447,6.187 9.68621,5.04596 c 1.90175,-1.14105 4.00634,-1.69889 6.28843,-1.69889 2.2821,0 4.38669,0.55784 6.28843,1.69889 0.96355,0.5832 1.85103,1.26783 2.61173,2.05388 h -8.06339 c -1.82567,0 -3.44849,0.38035 -4.86846,1.14105 C 10.52298,9.00158 9.40729,10.0412 8.62124,11.3851 8.06339,12.3233 7.7084,13.33756 7.55626,14.42789 H 3.60063 C 3.80349,12.729 4.31062,11.13154 5.17274,9.66086 Z M 22.28843,26.95404 C 20.38669,28.09509 18.28209,28.65293 16,28.65293 c -2.28209,0 -4.38669,-0.55784 -6.28843,-1.69889 C 7.80983,25.813 6.28843,24.2916 5.1981,22.3645 4.36133,20.91918 3.82884,19.34707 3.62599,17.67353 h 3.95563 c 0.15214,1.09034 0.50713,2.1046 1.06497,3.04279 0.78606,1.31855 1.90175,2.38352 3.32171,3.14422 1.41997,0.7607 3.04279,1.14104 4.86847,1.14104 h 7.98732 c -0.7607,0.7607 -1.59747,1.41997 -2.53566,1.97782 z" style="stroke-width:0.253566" /></svg>
