<svg width="32" height="32" viewBox="0 0 32" fill="none" xmlns="http://www.w3.org/2000/svg"><g transform="matrix(0.07613609,0,0,0.07613609,1.7968124,6.865e-7)"><path fill="#FFF" d="M 0.06637591,13.938864 -11.947551,7.0026199 l -10e-7,-13.8724881 12.01392717,-6.9362438 12.01392683,6.9362432 1e-6,13.872488 z" transform="matrix(14.201896,0,0,14.201896,185.60734,209.20734)" /><path fill="#1b4add" d="m 187.11,26.09 c 1.03,0 1.98,0.26 2.93,0.77 l 154.13,89.64 c 1.81,1.03 2.93,2.93 2.84,4.99 l -0.6,178.33 c 0,2.07 -1.12,3.96 -2.93,4.99 l -154.65,88.6 c -0.86,0.52 -1.89,0.77 -2.93,0.77 -1.04,0 -1.98,-0.26 -2.93,-0.77 L 28.85,303.78 c -1.81,-1.03 -2.93,-2.93 -2.84,-4.99 l 0.6,-178.33 c 0,-2.07 1.12,-3.96 2.93,-4.99 L 184.27,26.78 c 0.86,-0.43 1.89,-0.69 2.84,-0.69 M 187.2,0 c -5.51,0 -11.02,1.38 -15.93,4.22 L 16.62,92.82 C 6.72,98.51 0.6,109.01 0.6,120.38 L 0,298.71 c 0,11.37 6.03,21.87 15.84,27.64 l 154.13,89.64 c 4.91,2.84 10.42,4.31 15.93,4.31 5.51,0 11.02,-1.38 15.93,-4.22 l 154.65,-88.6 c 9.9,-5.68 16.02,-16.19 16.02,-27.55 l 0.6,-178.33 c 0,-11.37 -6.03,-21.87 -15.84,-27.64 L 203.13,4.31 C 198.22,1.47 192.71,0 187.2,0 Z" /><path fill="#1b4add" d="m 218.45,97.21 h -22.56 c -1.72,0 -3.19,1.03 -3.79,2.67 l -72.67,199.16 c -0.52,1.29 0.52,2.67 1.89,2.67 h 22.56 c 1.72,0 3.19,-1.03 3.79,-2.67 L 220.34,99.88 c 0.52,-1.29 -0.52,-2.67 -1.89,-2.67 z m -39.52,0 h -22.56 c -1.72,0 -3.19,1.03 -3.79,2.67 L 79.99,298.96 c -0.52,1.29 0.52,2.67 1.89,2.67 h 22.56 c 1.72,0 3.19,-1.03 3.79,-2.67 L 180.82,99.88 c 0.52,-1.29 -0.43,-2.67 -1.89,-2.67 z m 29.28,77.15 c -0.6,-1.81 -3.19,-1.81 -3.79,0 l -11.71,32.2 c -0.34,0.86 -0.34,1.89 0,2.76 l 32.72,89.64 c 0.6,1.55 2.07,2.67 3.79,2.67 h 22.56 c 1.38,0 2.41,-1.38 1.89,-2.67 z m 84.9,124.6 -65.18,-178.76 c -0.6,-1.81 -3.19,-1.81 -3.79,0 l -11.71,32.2 c -0.34,0.86 -0.34,1.89 0,2.76 l 52.44,143.8 c 0.6,1.55 2.07,2.67 3.79,2.67 h 22.56 c 1.46,0.09 2.41,-1.38 1.89,-2.67 z" /></g></svg>
