<svg width="32" height="32" viewBox="0 0 32" fill="none" xmlns="http://www.w3.org/2000/svg"><g transform="matrix(0.12459422,0,0,0.12459422,-9.737179e-4,1.8109245)"><path d="m 160.944,226.789 h 86.02 c 7.59,0 12.34,-8.22 8.54,-14.79 l -43.01,-74.49 c -3.8,-6.57 -13.28,-6.57 -17.08,0 l -43.01,74.49 c -3.8,6.57 0.95,14.79 8.54,14.79 z" fill="#ff394a" /><path d="M 171.704,66.8581 136.354,5.61809 c -3.57,-6.190004 -12.51,-6.190004 -16.08,0 L 1.38358,211.538 c -3.91,6.78 0.98,15.24 8.80002,15.24 h 70.79 c 7.55,0 14.52,-4.03 18.29,-10.56 L 171.704,90.7481 c 4.27,-7.39 4.27,-16.5 0,-23.89 z" fill="#ff394a" /></g></svg>
