<svg width="32" height="32" viewBox="0 0 32 32" fill="none" xmlns="http://www.w3.org/2000/svg"><path d="m 2.5e-4,2.52798 c 0,-0.86599 0,-1.29874 0.16325,-1.63199 C 0.31975,0.577 0.5775,0.31925 0.89649,0.163 1.22949,0 1.66224,0 2.52823,0 h 26.94379 c 0.86574,0 1.29899,0 1.63199,0.16325 0.31874,0.15625 0.57649,0.414 0.73299,0.73299 C 32,1.22924 32,1.66224 32,2.52823 v 26.94379 c 0,0.86574 0,1.29899 -0.163,1.63199 C 31.6805,31.42275 31.42275,31.6805 31.10401,31.837 30.77101,32 30.33776,32 29.47202,32 H 2.52823 C 1.66224,32 1.22949,32 0.89624,31.837 0.57725,31.6805 0.3195,31.42275 0.16325,31.10401 0,30.77101 0,30.33776 0,29.47202 V 2.52798 Z" style="fill:#0000ff;stroke-width:0.0249998" /></svg>
