<svg width="32" height="32" viewBox="0 0 32 32" fill="none" xmlns="http://www.w3.org/2000/svg"><rect width="32" height="32" rx="16" fill="#162f29" x="0" y="0" style="stroke-width:0.133333" /><path d="m 29.333331,16.071401 c 0,0.135256 -0.0019,0.270368 -0.0058,0.405624 h -0.01538 -6.469805 v -0.295474 h -6.24167 c 0,-0.06182 0.0019,-0.123646 0.0019,-0.183438 0,-0.05994 0,-0.123646 -0.0019,-0.183582 h 6.24167 v -0.293443 h 0.0097 6.46966 c 0.0077,0.183439 0.01161,0.366876 0.01161,0.550313 z m -12.842812,-1.330504 6.108589,-0.75131 0.03672,0.293588 6.450358,-0.793832 c -0.06183,-0.316663 -0.135259,-0.629551 -0.21827,-0.936622 l -6.349932,0.782208 0.03672,0.293443 -6.137615,0.755229 c 0.02714,0.119728 0.05225,0.239456 0.07343,0.36107 z m -0.318694,-1.18204 5.838222,-1.458053 0.0714,0.285837 6.19552,-1.546928 C 28.149403,10.540365 28.012405,10.244876 27.865539,9.9571229 l -6.013823,1.5025201 0.0714,0.285823 -5.886404,1.471622 c 0.04833,0.113924 0.09274,0.227847 0.135112,0.343801 z m -0.517514,-1.106561 5.457705,-2.060641 0.104344,0.276173 5.774368,-2.1803831 C 26.803372,8.2132027 26.606437,7.9466957 26.397893,7.6879093 l -5.519528,2.0838168 0.104199,0.2761719 -5.523301,2.085747 c 0.06763,0.104287 0.133224,0.210504 0.195048,0.318651 z m -0.716482,-1.023565 4.820318,-2.5125442 0.135256,0.2626468 5.330286,-2.7790657 C 24.978428,6.1622276 24.723444,5.9362685 24.460768,5.7180444 l -5.00956,2.6110404 0.135111,0.2626467 -4.901442,2.5550365 c 0.0849,0.09271 0.169942,0.185412 0.251066,0.281963 z m -1.162593,-1.104675 4.364625,-2.7751907 0.158331,0.2491211 4.816544,-3.0629588 C 22.811571,4.5419103 22.502456,4.3623039 22.183907,4.1942784 l -4.39757,2.7964517 0.158476,0.2491356 -4.490158,2.8543713 c 0.110005,0.07339 0.216236,0.150639 0.322468,0.229819 z m -1.031329,-0.6450356 3.657796,-2.99922 0.187356,0.2278893 4.119365,-3.3796933 C 20.358819,3.3947428 19.999635,3.2750149 19.636532,3.1707284 l -3.653949,2.9972897 0.187356,0.2278894 -3.791035,3.1093116 c 0.123603,0.054073 0.245275,0.1120072 0.365003,0.1738013 z M 11.378515,9.1479365 14.267644,6.2723048 14.474301,6.480878 18.145667,2.8327473 C 17.747735,2.7670929 17.344143,2.71881 16.934745,2.6879129 l -3.13063,3.115102 0.206658,0.2085734 -3.051334,3.035922 c 0.140988,0.028967 0.280032,0.061794 0.419076,0.1004262 z M 9.7813743,8.9065216 12.08536,6.1139447 12.313249,6.3012716 15.312541,2.6666667 c -0.455836,0.021246 -0.905868,0.065669 -1.348062,0.1313233 l -2.388971,2.8949479 0.227889,0.1873269 -2.4951729,3.0243265 c 0.069529,-0.00193 0.1409742,-0.00386 0.2105034,-0.00386 0.088845,0 0.175746,0 0.2626468,0.00386 z M 8.4005416,8.9895764 10.175359,6.2433379 10.42255,6.4036281 12.568175,3.0818829 C 12.077639,3.209346 11.598684,3.3638459 11.131324,3.5434521 L 9.621084,5.8821951 9.8682893,6.0424852 7.9022704,9.0861279 C 8.0664355,9.0475103 8.2325161,9.0146829 8.4005416,8.9876463 Z M 6.8671248,9.4163737 8.1436853,7.0235573 8.4024717,7.1626159 10.092304,3.9973007 C 9.5496245,4.2618776 9.0281915,4.5612263 8.5299348,4.8933877 L 7.5585135,6.7126276 7.81923,6.8516861 6.3167248,9.6674395 C 6.4944009,9.576664 6.6778676,9.4936236 6.8651947,9.4183039 Z M 5.7663103,9.9783692 6.3089896,8.4372317 6.5870921,8.5357279 7.6415537,5.5422984 C 7.1066096,5.9671655 6.604478,6.4306648 6.1390485,6.9308663 L 5.6852,8.2190077 5.9633025,8.3175039 5.2525977,10.333722 C 5.4186931,10.208189 5.5886485,10.090376 5.7643801,9.9802993 Z M 4.4125144,11.081114 4.6519847,9.9609832 4.9397379,10.022792 5.4225533,7.7670893 C 4.9146313,8.4121252 4.4646576,9.105444 4.0803384,9.8373951 l 0.2143637,0.046338 -0.4403229,1.8539979 c 0.1718857,-0.22982 0.3592127,-0.449974 0.5581352,-0.656617 z M 3.4179167,12.390501 V 10.907298 C 3.0587039,11.855543 2.8037779,13.035537 2.666664,14.192327 2.8346893,13.551165 3.0896009,12.946692 3.4179167,12.390501 Z m -0.7416019,5.451858 c 0.1409887,0.986848 0.3881796,1.93901 0.7319511,2.844734 V 19.592127 C 3.0915456,19.051392 2.84241,18.464217 2.6763148,17.842359 Z m 1.2244172,2.481632 0.3843193,1.79229 -0.2143637,0.0463 c 0.3843048,0.733896 0.8342929,1.425269 1.3422149,2.070349 L 4.9300871,21.977252 4.6423339,22.039075 4.3989887,20.90536 C 4.2232427,20.720036 4.0552319,20.526875 3.900732,20.322104 Z m 1.3383547,1.33268 0.714565,2.027828 -0.2781025,0.09839 0.4538485,1.288127 c 0.4654295,0.500245 0.9675466,0.963773 1.5025054,1.388553 L 6.5774413,23.466231 6.2993388,23.564625 5.7547293,22.015855 C 5.5789833,21.903819 5.4070976,21.785977 5.2410168,21.660444 Z m 1.0660426,0.670041 1.50638,2.823547 -0.2607165,0.139029 0.9714068,1.819284 c 0.4982712,0.332189 1.0197043,0.631437 1.5623834,0.896 L 8.3947511,24.839256 8.13402,24.978431 6.8536136,22.579809 C 6.6662721,22.504489 6.4828055,22.419447 6.3031992,22.328744 Z m 1.58556,0.583256 1.9679348,3.047475 -0.2471909,0.160362 1.5102258,2.338684 c 0.467374,0.179666 0.946315,0.334223 1.43685,0.461643 l -2.14561,-3.32176 -0.247206,0.160217 -1.7767469,-2.749968 c -0.1680109,-0.02714 -0.3360362,-0.05994 -0.5001869,-0.09854 z m 1.4059539,0.185469 2.4951578,3.024255 -0.227874,0.187356 2.388941,2.894948 c 0.442195,0.06574 0.892227,0.110149 1.348064,0.131337 l -2.999279,-3.636534 -0.227889,0.187356 -2.3039708,-2.792636 c -0.08304,0.0039 -0.1680253,0.0039 -0.2529959,0.0039 -0.07339,0 -0.1487093,0 -0.2220988,-0.0039 z m 1.6550748,-0.142948 3.049477,3.033978 -0.206658,0.208545 3.130486,3.115101 c 0.409396,-0.03091 0.813133,-0.07909 1.21092,-0.144834 l -3.669334,-3.650032 -0.208544,0.210576 -2.88727,-2.873759 c -0.137114,0.03672 -0.278103,0.0714 -0.419077,0.100425 z m 1.421395,-0.453804 3.787247,3.10741 -0.187356,0.227846 3.653805,2.99726 c 0.363102,-0.104344 0.722286,-0.224072 1.071891,-0.357296 l -4.121252,-3.379665 -0.187356,0.227847 -3.653907,-2.997262 c -0.119741,0.06182 -0.2414,0.119728 -0.365002,0.17386 z m 1.073706,-0.590948 4.484353,2.852426 -0.158331,0.249034 4.397424,2.796554 c 0.318694,-0.168055 0.629696,-0.349606 0.930975,-0.540735 l -4.816544,-3.063003 -0.158331,0.24918 -4.358821,-2.771446 c -0.106232,0.07924 -0.212463,0.156444 -0.322612,0.229877 z m 1.236026,-1.050702 4.895783,2.551292 -0.135256,0.26253 5.009705,2.611084 c 0.262675,-0.218268 0.517515,-0.444226 0.762775,-0.68165 l -5.33014,-2.779139 -0.135256,0.262676 -4.814513,-2.508771 c -0.08112,0.09665 -0.164282,0.191274 -0.251066,0.281978 z m 0.774531,-0.988736 5.515609,2.083846 -0.104344,0.276172 5.519528,2.083702 c 0.206658,-0.258758 0.403592,-0.525207 0.592835,-0.799492 l -5.774367,-2.180355 -0.104345,0.276173 -5.449868,-2.05874 c -0.06182,0.108119 -0.127565,0.21435 -0.195048,0.318694 z m 0.577451,-1.08147 5.876681,1.467647 -0.0714,0.285896 6.013822,1.502476 c 0.148754,-0.287783 0.285896,-0.583256 0.413315,-0.882503 l -6.195373,-1.54703 -0.07155,0.285896 -5.830385,-1.456182 c -0.04252,0.11581 -0.08882,0.229878 -0.135112,0.3438 z m 0.382258,-1.166512 6.127892,0.753198 -0.03672,0.293588 6.349932,0.782076 c 0.08316,-0.308971 0.156445,-0.621859 0.218268,-0.936635 l -6.450359,-0.793687 -0.03672,0.293442 -6.098866,-0.751166 c -0.02119,0.121615 -0.0463,0.241343 -0.07343,0.361071 z" fill="#FFF" style="stroke-width:0.145125" /></svg>
